<svg t="1625104462625" class="icon" viewBox="0 0 1024 1024" version="1.1" xmlns="http://www.w3.org/2000/svg" p-id="1375" width="16" height="16">
	<path d="M512 512m-512 0a512 512 0 1 0 1024 0 512 512 0 1 0-1024 0Z" fill="#E1E8FA" opacity=".1" p-id="1376">
	</path>
	<path d="M229.647059 632.470588c-2.258824 3.764706-3.764706 8.282353-3.764706 12.8V936.658824c-30.117647-20.329412-57.976471-43.670588-82.823529-70.02353V662.588235c0-16.564706 13.552941-30.117647 30.117647-30.117647h56.470588z m636.235294 0c16.564706 0 30.117647 13.552941 30.117647 30.117647v188.235294c-24.847059 27.858824-52.705882 53.458824-82.823529 75.294118V647.529412c0-5.270588-1.505882-10.541176-3.764706-15.058824h56.470588z" fill="#144978" p-id="1377">
	</path>
	<path d="M513.505882 1024l0.752942-3.764706 4.517647 0.752941c9.035294 1.505882 15.811765 3.011765 0 3.011765H513.505882z m0 0l-4.517647-0.752941c-13.552941-3.011765-9.035294-3.764706-1.505882-3.011765l5.270588 0.752941 0.752941 3.011765z m1.505883-8.282353l-0.752941 4.517647h-1.505883l-0.752941-4.517647h3.011765z m-27.858824-334.305882v3.011764l-6.023529 155.858824L459.294118 718.305882c-2.258824-14.305882-4.517647-27.858824-6.776471-39.905882 6.023529 1.505882 12.047059 2.258824 18.070588 2.258824h3.764706l12.8 0.752941z m63.247059-0.752941c4.517647 0 9.035294-0.752941 13.552941-1.505883l2.258824-0.752941-18.070589 118.964706c-6.776471 43.670588-14.305882 94.117647-23.341176 151.341176l-4.517647 29.364706 21.835294-140.047059-6.776471-156.611764h15.058824z" fill="#FFFFFF" p-id="1378">
	</path>
	<path d="M435.2 567.717647l58.729412 48.188235-6.02353 64h-12.8c-7.529412 0-15.058824-0.752941-21.835294-2.258823L444.235294 627.2c-6.023529-33.882353-9.035294-53.458824-9.035294-59.482353z m146.823529-0.752941l-0.752941 2.258823c-0.752941 9.035294-6.023529 45.176471-15.058823 108.42353-6.023529 1.505882-11.294118 2.258824-15.811765 2.258823h-15.058824l-6.023529-62.494117 52.705882-50.447059c0 0.752941 0 0.752941 0 0z" fill="#DFDFDF" p-id="1379">
	</path>
	<path d="M475.105882 978.070588c9.035294 12.8 16.564706 23.341176 24.094118 30.117647h-25.6l1.505882-30.117647z m54.211765-369.694117l5.270588 64h0.752941l6.776471 156.611764-23.341176 152.094118-3.764706 26.352941H512l-30.870588-175.435294 6.023529-155.858824v-3.764705l6.02353-64h36.141176z m19.576471 377.97647l0.752941 21.082353h-18.070588c6.023529-4.517647 11.294118-12.047059 17.317647-21.082353z" fill="#3D6491" p-id="1380">
	</path>
	<path d="M368.188235 617.411765l-12.047059 49.694117 30.117648 20.329412-33.882353 12.047059 3.011764 12.8 0.752941 3.764706c15.058824 60.988235 112.188235 298.164706 157.364706 307.952941l-1.505882-7.529412h3.011765l-1.505883 7.529412h1.505883-3.011765c-106.164706 0-204.8-32.376471-286.117647-87.341176V647.529412c0-16.564706 13.552941-30.117647 30.117647-30.117647h112.188235z m414.870589 0c16.564706 0 30.117647 13.552941 30.117647 30.117647v278.588235c-84.329412 61.741176-188.235294 97.882353-301.176471 97.882353h5.270588c43.670588-4.517647 127.247059-238.682353 141.552941-296.658824l0.752942-3.011764 2.258823-12.047059 3.011765-12.8-33.882353-12.047059 30.117647-20.329412-12.8-49.694117H783.058824z" fill="#48709D" p-id="1381">
	</path>
	<path d="M429.929412 565.458824c1.505882 0 3.764706 0.752941 5.270588 2.258823 0 11.294118 26.352941 163.388235 78.305882 456.282353 45.176471-292.894118 67.764706-444.988235 67.764706-456.282353 1.505882-1.505882 3.011765-1.505882 4.517647-2.258823h1.505883c1.505882 0 3.011765 0.752941 4.517647 1.505882l0.752941 0.752941 2.258823 2.258824 54.211765 45.929411-0.752941 1.505883 12.047059 49.694117-30.117647 20.329412 33.882353 12.047059-3.011765 12.8-2.258824 12.047059c-11.294118 51.952941-98.635294 299.670588-143.058823 299.670588s-149.082353-256-161.129412-311.717647l-3.011765-12.8 33.882353-12.047059-30.117647-20.329412 12.047059-49.694117-0.752941-1.505883 54.211765-45.929411 2.258823-2.258824c1.505882-1.505882 3.011765-2.258824 4.517647-2.258823h2.258824z" fill="#7CA8D1" p-id="1382">
	</path>
	<path d="M581.255529 71.439059c16.564706 0 30.117647 13.552941 30.117647 30.117647v22.588235h23.341177c16.564706 0 30.117647 13.552941 30.117647 30.117647v113.694118h-22.588235l-0.752941-85.082353c-0.752941-15.811765-13.552941-27.858824-28.611765-28.611765H412.596706c-3.011765 0-5.270588 0.752941-8.282353 0.752941h0.752941v-47.435294c0.752941-6.776471 6.776471-12.8 14.305882-13.552941h1.505883-15.058824c-8.282353 0-14.305882 6.023529-15.058823 14.305882v56.470589l0.752941-0.752941c-4.517647 5.270588-7.529412 11.294118-8.282353 18.823529V267.956706h-21.835294c-0.752941-2.258824-0.752941-4.517647-0.752941-7.529412v-158.870588c0-16.564706 13.552941-30.117647 30.117647-30.117647h190.494117z" fill="#302E30" p-id="1383">
	</path>
	<path d="M420.126118 94.027294c-8.282353 0-14.305882 6.023529-15.058824 14.305882v47.435295c-6.023529 1.505882-11.294118 4.517647-15.058823 9.035294v-55.717647c0-8.282353 6.776471-15.058824 15.058823-15.058824h15.058824z" fill="#797272" p-id="1384">
	</path>
	<path d="M672.361412 267.956706c15.811765 0 29.364706 12.8 30.117647 28.611765v16.564705c0 15.811765-12.8 29.364706-28.611765 30.117648h-31.623529 1.505882c15.058824-0.752941 27.858824-12.8 28.611765-28.611765V296.568471c-0.752941-15.058824-12.8-27.858824-28.611765-28.611765h-1.505882 30.117647z m-292.141177 0c-15.058824 0.752941-27.858824 12.8-28.611764 28.611765v16.564705c0 15.811765 12.8 29.364706 28.611764 30.117648h1.505883-30.117647c-16.564706 0-30.117647-13.552941-30.117647-30.117648v-15.058823c0-16.564706 13.552941-30.117647 30.117647-30.117647h30.870588-2.258824z" fill="#F6BE9D" p-id="1385">
	</path>
	<path d="M382.479059 267.956706v75.294118c-16.564706 0-30.117647-13.552941-30.117647-30.117648v-15.058823c0-15.811765 12.8-29.364706 28.611764-30.117647h1.505883z m259.011765 0c16.564706 0 29.364706 12.8 30.117647 28.611765v16.564705c0 15.811765-12.8 29.364706-28.611765 30.117648h-1.505882v-75.294118z" fill="#E9925F" p-id="1386">
	</path>
	<path d="M611.373176 155.015529c16.564706 0 29.364706 12.8 30.117648 28.611765v205.552941c0 20.329412-2.258824 35.388235-7.529412 45.176471-7.529412 14.305882-64.752941 79.058824-103.152941 82.823529h-34.635295c-38.4 0-99.388235-67.764706-106.917647-83.57647-5.270588-9.788235-7.529412-24.847059-7.529411-45.176471v-203.294118c0-16.564706 13.552941-30.117647 30.117647-30.117647h199.529411z m-25.6 273.317647H447.232c-3.764706 1.505882-5.270588 5.270588-4.517647 9.035295 9.788235 33.129412 34.635294 49.694118 75.294118 49.694117s65.505882-16.564706 75.294117-49.694117v-2.258824c0-3.011765-1.505882-5.270588-3.764706-6.776471l-0.752941-0.752941h-0.752941c-0.752941 1.505882-0.752941 1.505882-2.258824 0.752941z" fill="#FFD0B6" p-id="1387">
	</path>
	<path d="M593.302588 435.862588v2.258824c-9.788235 33.129412-34.635294 49.694118-75.294117 49.694117s-65.505882-16.564706-75.294118-49.694117c-0.752941-3.764706 0.752941-7.529412 4.517647-9.035294 0 2.258824 0.752941 3.764706 2.258824 5.270588 12.8 11.294118 35.388235 16.564706 68.517647 16.564706 33.129412 0 55.717647-5.270588 68.517647-16.564706 1.505882-1.505882 2.258824-3.011765 2.258823-4.517647v-0.752941c3.011765 1.505882 4.517647 3.764706 4.517647 6.77647z" fill="#FF9090" p-id="1388">
	</path>
	<path d="M585.773176 428.333176c0.752941 0 2.258824 0 3.011765 0.752942v-0.752942c0 2.258824-0.752941 4.517647-2.258823 5.270589-12.8 11.294118-35.388235 16.564706-68.517647 16.564706-33.129412 0-55.717647-5.270588-68.517647-16.564706-1.505882-1.505882-2.258824-3.011765-2.258824-5.270589h138.541176z" fill="#FF3E3E" p-id="1389">
	</path>
	<path d="M435.937882 484.803765c19.576471 16.564706 41.411765 31.623529 59.482353 32.37647h36.141177c15.058824-1.505882 33.129412-12.8 49.694117-26.352941v77.552941l-50.447058 47.435294h-36.894118l-57.976471-47.435294v-83.57647z" fill="#F3B996" p-id="1390">
	</path>
</svg>
