<svg width="20" height="20" viewBox="0 0 20 20" fill="none" xmlns="http://www.w3.org/2000/svg">
<path d="M18.3841 16.7299H1.56272C1.26406 16.7299 1.00806 16.4846 1.00806 16.1753V14.8526C1.00806 14.5539 1.25339 14.2979 1.56272 14.2979H18.3841C18.6827 14.2979 18.9387 14.5433 18.9387 14.8526V16.1753C18.9281 16.4846 18.6827 16.7299 18.3841 16.7299ZM11.1414 4.67662C8.24006 4.34595 5.44539 5.62595 3.66406 7.88728L2.02139 6.94862L1.98939 13.1566L7.47206 10.0526L5.79739 9.10328C7.07739 7.65262 8.94406 6.85262 10.8747 7.07662C13.5734 7.37528 15.7067 9.58328 16.1121 12.4099C16.1547 12.7086 16.4214 12.9326 16.7307 12.9113L17.9681 12.8366C18.3094 12.8153 18.5547 12.5059 18.5121 12.1646C17.9894 8.21795 14.9707 5.11395 11.1414 4.67662Z" fill="#29B061"/>
</svg>
