<svg width="320" height="320" viewBox="0 0 320 320" fill="none" xmlns="http://www.w3.org/2000/svg">
<g clip-path="url(#clip0_327_31936)">
<path d="M199.644 181.557L71.0884 214.662C66.7277 215.78 62.1016 215.122 58.2252 212.833C54.3487 210.544 51.5385 206.811 50.4109 202.453L11.5323 51.4756C10.4146 47.1149 11.0723 42.4889 13.3611 38.6124C15.6499 34.736 19.383 31.9258 23.7412 30.7982L143.341 0L173.953 13.7039L211.853 160.88C212.971 165.241 212.313 169.867 210.024 173.743C207.735 177.62 204.002 180.43 199.644 181.557V181.557Z" fill="#F3F5F7"/>
<path d="M24.959 35.5318C21.8554 36.3347 19.1971 38.3359 17.5672 41.0964C15.9372 43.8569 15.4689 47.1512 16.2648 50.2566L55.1434 201.234C55.9464 204.338 57.9476 206.996 60.7081 208.626C63.4686 210.256 66.7629 210.724 69.8683 209.928L198.424 176.824C201.528 176.021 204.186 174.02 205.816 171.259C207.446 168.499 207.914 165.204 207.118 162.099L169.806 17.2032L142.903 5.15991L24.959 35.5318Z" fill="white"/>
<path d="M173.626 14.4828L153.73 19.6062C152.277 19.9802 150.736 19.7619 149.444 18.9994C148.153 18.2368 147.217 16.9925 146.843 15.54L143.059 0.845387C143.042 0.781053 143.044 0.713353 143.064 0.650051C143.085 0.586748 143.122 0.530407 143.173 0.487485C143.224 0.444564 143.285 0.416801 143.351 0.40738C143.417 0.39796 143.484 0.407263 143.545 0.434223L173.681 13.8175C173.748 13.8473 173.804 13.8973 173.841 13.9604C173.879 14.0235 173.896 14.0967 173.89 14.1698C173.883 14.243 173.855 14.3124 173.807 14.3685C173.76 14.4246 173.697 14.4645 173.626 14.4828V14.4828Z" fill="#F3F5F7"/>
<path d="M163.159 143.414L104.629 158.486C104.27 158.579 103.895 158.6 103.528 158.548C103.16 158.495 102.806 158.372 102.487 158.183C102.167 157.994 101.887 157.744 101.664 157.447C101.441 157.15 101.279 156.813 101.186 156.453C101.093 156.093 101.073 155.719 101.125 155.351C101.177 154.984 101.301 154.63 101.489 154.31C101.678 153.991 101.928 153.711 102.225 153.488C102.522 153.265 102.86 153.102 103.219 153.01L161.749 137.938C162.108 137.845 162.483 137.824 162.85 137.876C163.218 137.928 163.572 138.052 163.891 138.241C164.211 138.43 164.491 138.68 164.714 138.977C164.937 139.273 165.099 139.611 165.192 139.971C165.285 140.33 165.306 140.705 165.253 141.072C165.201 141.44 165.077 141.794 164.889 142.114C164.7 142.433 164.45 142.713 164.153 142.936C163.856 143.159 163.519 143.322 163.159 143.414Z" fill="#E0E4E8"/>
<path d="M176.834 149.747L107.009 167.728C106.283 167.915 105.512 167.806 104.867 167.424C104.221 167.043 103.753 166.421 103.566 165.695C103.379 164.968 103.488 164.198 103.869 163.552C104.251 162.906 104.873 162.438 105.599 162.251L175.424 144.271C176.15 144.084 176.92 144.194 177.565 144.575C178.21 144.957 178.678 145.579 178.865 146.304C179.052 147.03 178.943 147.8 178.562 148.446C178.181 149.092 177.56 149.559 176.834 149.747V149.747Z" fill="#E0E4E8"/>
<path d="M80.7409 176.639C86.2604 176.639 90.7348 172.165 90.7348 166.645C90.7348 161.126 86.2604 156.651 80.7409 156.651C75.2215 156.651 70.7471 161.126 70.7471 166.645C70.7471 172.165 75.2215 176.639 80.7409 176.639Z" fill="#E0E4E8"/>
<path d="M156.935 117.26L79.2018 137.269C76.9553 137.845 74.5722 137.506 72.5754 136.327C70.5785 135.147 69.131 133.224 68.5503 130.979L52.2604 67.6966C51.6848 65.4501 52.0238 63.067 53.2031 61.0702C54.3823 59.0733 56.3055 57.6258 58.5507 57.0451L136.284 37.0355C138.53 36.4599 140.913 36.7989 142.91 37.9782C144.907 39.1575 146.355 41.0807 146.935 43.3259L163.225 106.608C163.801 108.855 163.462 111.238 162.283 113.235C161.103 115.232 159.18 116.679 156.935 117.26Z" fill="white"/>
<path d="M156.935 117.26L79.2018 137.269C76.9553 137.845 74.5722 137.506 72.5754 136.327C70.5785 135.147 69.131 133.224 68.5503 130.979L52.2604 67.6966C51.6848 65.4501 52.0238 63.067 53.2031 61.0702C54.3823 59.0733 56.3055 57.6258 58.5507 57.0451L136.284 37.0355C138.53 36.4599 140.913 36.7989 142.91 37.9782C144.907 39.1575 146.355 41.0807 146.935 43.3259L163.225 106.608C163.801 108.855 163.462 111.238 162.283 113.235C161.103 115.232 159.18 116.679 156.935 117.26ZM58.8073 58.0417C56.8262 58.5541 55.1293 59.8313 54.0888 61.5932C53.0482 63.3551 52.7491 65.4578 53.257 67.44L69.5469 130.722C70.0593 132.704 71.3365 134.4 73.0984 135.441C74.8604 136.481 76.9631 136.781 78.9453 136.273L156.678 116.263C158.66 115.751 160.356 114.474 161.397 112.712C162.438 110.95 162.737 108.847 162.229 106.865L145.939 43.5824C145.426 41.6013 144.149 39.9044 142.387 38.8639C140.625 37.8234 138.523 37.5242 136.54 38.0321L58.8073 58.0417Z" fill="#E0E4E8"/>
<path d="M132.341 58.3136L93.1098 68.4122C92.7668 68.5079 92.4003 68.4699 92.0843 68.3057C91.7683 68.1416 91.5264 67.8636 91.4075 67.5279C91.3521 67.3526 91.3331 67.1678 91.3515 66.9849C91.37 66.8019 91.4255 66.6247 91.5147 66.4639C91.6039 66.3031 91.725 66.1622 91.8704 66.0497C92.0159 65.9373 92.1828 65.8556 92.3608 65.8098L132.295 55.53C133.909 56.3474 133.484 58.0192 132.34 58.3137L132.341 58.3136Z" fill="#F3F5F7"/>
<path d="M134.112 65.1949L94.8813 75.2935C94.5383 75.3893 94.1717 75.3512 93.8557 75.1871C93.5397 75.0229 93.2978 74.7449 93.179 74.4093C93.1236 74.2339 93.1046 74.0492 93.123 73.8662C93.1415 73.6833 93.197 73.506 93.2862 73.3452C93.3754 73.1844 93.4964 73.0435 93.6419 72.9311C93.7874 72.8186 93.9542 72.737 94.1323 72.6911L134.067 62.4114C135.68 63.2288 135.256 64.9006 134.112 65.195L134.112 65.1949Z" fill="#F3F5F7"/>
<path d="M87.4091 81.3947L75.4362 84.4767C75.0452 84.5769 74.6304 84.5179 74.2828 84.3127C73.9352 84.1074 73.6833 83.7726 73.5822 83.3818L69.9452 69.2529C69.845 68.8619 69.904 68.4471 70.1092 68.0995C70.3145 67.7519 70.6493 67.4999 71.0401 67.3989L83.013 64.3169C83.404 64.2168 83.8188 64.2759 84.1663 64.4811C84.5139 64.6864 84.7658 65.0211 84.867 65.4118L88.504 79.5407C88.6042 79.9318 88.5453 80.3466 88.34 80.6942C88.1347 81.0418 87.7999 81.2937 87.4091 81.3947V81.3947Z" fill="#E0E4E8"/>
<path d="M137.625 79.314L77.7514 94.7263C77.4084 94.822 77.0419 94.784 76.7259 94.6198C76.4099 94.4557 76.168 94.1777 76.0491 93.842C75.9937 93.6667 75.9747 93.4819 75.9931 93.299C76.0116 93.116 76.0671 92.9388 76.1563 92.778C76.2455 92.6172 76.3666 92.4763 76.512 92.3638C76.6575 92.2514 76.8244 92.1697 77.0024 92.1239L137.58 76.5303C139.193 77.3477 138.769 79.0195 137.625 79.314L137.625 79.314Z" fill="#F3F5F7"/>
<path d="M139.396 86.1972L79.5229 101.61C79.1799 101.705 78.8134 101.667 78.4974 101.503C78.1814 101.339 77.9395 101.061 77.8206 100.725C77.7652 100.55 77.7462 100.365 77.7646 100.182C77.7831 99.9993 77.8386 99.822 77.9278 99.6613C78.017 99.5005 78.138 99.3596 78.2835 99.2471C78.429 99.1346 78.5959 99.053 78.7739 99.0072L139.352 83.4136C140.965 84.2309 140.54 85.9028 139.396 86.1972V86.1972Z" fill="#F3F5F7"/>
<path d="M141.168 93.0762L81.2944 108.488C80.9514 108.584 80.5848 108.546 80.2688 108.382C79.9528 108.218 79.7109 107.94 79.592 107.604C79.5367 107.429 79.5177 107.244 79.5361 107.061C79.5546 106.878 79.6101 106.701 79.6993 106.54C79.7885 106.379 79.9095 106.238 80.055 106.126C80.2005 106.014 80.3673 105.932 80.5454 105.886L141.123 90.2925C142.736 91.1099 142.312 92.7817 141.168 93.0762V93.0762Z" fill="#F3F5F7"/>
<path d="M142.939 99.959L83.0659 115.371C82.7229 115.467 82.3563 115.429 82.0403 115.265C81.7243 115.101 81.4824 114.823 81.3635 114.487C81.3082 114.312 81.2892 114.127 81.3076 113.944C81.326 113.761 81.3816 113.584 81.4708 113.423C81.56 113.262 81.681 113.121 81.8265 113.009C81.972 112.896 82.1388 112.815 82.3169 112.769L142.895 97.1753C144.508 97.9927 144.083 99.6645 142.939 99.959L142.939 99.959Z" fill="#F3F5F7"/>
<path d="M144.71 106.838L84.8363 122.251C84.4934 122.346 84.1268 122.308 83.8108 122.144C83.4948 121.98 83.2529 121.702 83.134 121.366C83.0787 121.191 83.0597 121.006 83.0781 120.823C83.0966 120.64 83.1521 120.463 83.2413 120.302C83.3305 120.142 83.4515 120.001 83.597 119.888C83.7425 119.776 83.9093 119.694 84.0874 119.648L144.665 104.055C146.278 104.872 145.854 106.544 144.71 106.838V106.838Z" fill="#F3F5F7"/>
<path d="M81.478 170.148C81.2604 170.205 81.0303 170.189 80.8225 170.103L80.8096 170.098L78.0871 168.944C77.9607 168.89 77.8461 168.812 77.7499 168.715C77.6537 168.617 77.5777 168.501 77.5263 168.374C77.4748 168.246 77.449 168.11 77.4502 167.973C77.4515 167.836 77.4797 167.7 77.5334 167.574C77.5871 167.448 77.6652 167.333 77.7631 167.237C77.8611 167.141 77.977 167.065 78.1043 167.014C78.2316 166.963 78.3677 166.937 78.5049 166.939C78.6421 166.94 78.7777 166.969 78.9039 167.023L80.668 167.773L82.9798 162.335C83.0334 162.209 83.1113 162.094 83.2091 161.998C83.3069 161.902 83.4226 161.827 83.5497 161.775C83.6767 161.724 83.8127 161.698 83.9497 161.7C84.0867 161.701 84.2221 161.729 84.3482 161.783L84.3485 161.783L84.3346 161.819L84.3491 161.783C84.6036 161.891 84.8046 162.097 84.908 162.353C85.0114 162.61 85.0089 162.897 84.9008 163.152L82.1811 169.546C82.118 169.693 82.0218 169.824 81.9 169.928C81.7782 170.033 81.634 170.107 81.4786 170.147L81.478 170.148Z" fill="white"/>
<path d="M136.535 105.206C136.31 105.206 136.091 105.133 135.911 104.999L135.9 104.99L133.551 103.193C133.442 103.11 133.35 103.006 133.282 102.888C133.213 102.769 133.168 102.638 133.15 102.502C133.132 102.366 133.141 102.227 133.176 102.095C133.211 101.962 133.273 101.838 133.356 101.729C133.44 101.62 133.544 101.528 133.663 101.46C133.781 101.391 133.913 101.347 134.049 101.329C134.185 101.311 134.323 101.32 134.456 101.356C134.588 101.392 134.712 101.453 134.821 101.537L136.342 102.703L139.937 98.0135C140.021 97.9048 140.125 97.8135 140.243 97.745C140.362 97.6764 140.493 97.6319 140.629 97.614C140.765 97.596 140.903 97.605 141.035 97.6404C141.167 97.6758 141.291 97.7369 141.4 97.8203L141.4 97.8205L141.378 97.8515L141.401 97.8205C141.62 97.9891 141.764 98.2378 141.8 98.5121C141.836 98.7864 141.762 99.0639 141.594 99.2836L137.366 104.797C137.268 104.925 137.142 105.027 136.998 105.098C136.854 105.169 136.696 105.205 136.535 105.205L136.535 105.206Z" fill="white"/>
<path d="M235.646 246.513H102.897C98.3949 246.507 94.079 244.717 90.8958 241.534C87.7126 238.351 85.9221 234.035 85.917 229.533V73.6302C85.9221 69.1285 87.7126 64.8126 90.8958 61.6294C94.079 58.4463 98.3949 56.6557 102.897 56.6506H226.398L252.626 77.5555V229.533C252.621 234.035 250.83 238.351 247.647 241.534C244.464 244.717 240.148 246.507 235.646 246.513V246.513Z" fill="#E0E4E8"/>
<path d="M102.896 61.5386C99.6905 61.5422 96.617 62.8173 94.3502 65.0841C92.0834 67.3509 90.8083 70.4243 90.8047 73.6301V229.533C90.8083 232.739 92.0834 235.812 94.3502 238.079C96.617 240.346 99.6905 241.621 102.896 241.624H235.646C238.852 241.621 241.925 240.346 244.192 238.079C246.459 235.812 247.734 232.739 247.737 229.533V79.9102L224.688 61.5386H102.896Z" fill="white"/>
<path d="M209.826 106.871H149.387C148.637 106.871 147.918 106.573 147.388 106.043C146.857 105.512 146.56 104.793 146.56 104.043C146.56 103.293 146.857 102.574 147.388 102.044C147.918 101.514 148.637 101.216 149.387 101.216H209.826C210.576 101.216 211.295 101.514 211.826 102.044C212.356 102.574 212.654 103.293 212.654 104.043C212.654 104.793 212.356 105.512 211.826 106.043C211.295 106.573 210.576 106.871 209.826 106.871V106.871Z" fill="#F3F5F7"/>
<path d="M221.49 116.414H149.387C148.638 116.413 147.92 116.115 147.39 115.585C146.861 115.054 146.563 114.336 146.563 113.587C146.563 112.837 146.861 112.119 147.39 111.589C147.92 111.058 148.638 110.76 149.387 110.759H221.49C221.862 110.759 222.23 110.831 222.573 110.973C222.917 111.115 223.229 111.323 223.492 111.586C223.755 111.848 223.963 112.16 224.106 112.504C224.248 112.847 224.321 113.215 224.321 113.587C224.321 113.958 224.248 114.326 224.106 114.67C223.963 115.013 223.755 115.325 223.492 115.587C223.229 115.85 222.917 116.058 222.573 116.2C222.23 116.342 221.862 116.415 221.49 116.414V116.414Z" fill="#E0E4E8"/>
<path d="M209.827 143.981H149.39C148.64 143.981 147.921 144.279 147.391 144.809C146.86 145.339 146.562 146.058 146.562 146.808C146.562 147.558 146.86 148.277 147.391 148.808C147.921 149.338 148.64 149.636 149.39 149.636H209.827C210.577 149.636 211.296 149.338 211.826 148.808C212.356 148.277 212.654 147.558 212.654 146.808C212.654 146.058 212.356 145.339 211.826 144.809C211.296 144.279 210.577 143.981 209.827 143.981V143.981Z" fill="#F3F5F7"/>
<path d="M221.491 153.525H149.39C148.64 153.525 147.921 153.823 147.391 154.354C146.86 154.884 146.562 155.603 146.562 156.353C146.562 157.103 146.86 157.822 147.391 158.352C147.921 158.882 148.64 159.18 149.39 159.18H221.491C222.241 159.18 222.96 158.882 223.491 158.352C224.021 157.822 224.319 157.103 224.319 156.353C224.319 155.603 224.021 154.884 223.491 154.354C222.96 153.823 222.241 153.525 221.491 153.525Z" fill="#E0E4E8"/>
<path d="M209.826 192.404H149.387C148.637 192.404 147.918 192.106 147.388 191.576C146.857 191.046 146.56 190.326 146.56 189.577C146.56 188.827 146.857 188.107 147.388 187.577C147.918 187.047 148.637 186.749 149.387 186.749H209.826C210.576 186.749 211.295 187.047 211.826 187.577C212.356 188.107 212.654 188.827 212.654 189.577C212.654 190.326 212.356 191.046 211.826 191.576C211.295 192.106 210.576 192.404 209.826 192.404V192.404Z" fill="#F3F5F7"/>
<path d="M221.49 201.947H149.387C148.638 201.946 147.92 201.648 147.39 201.118C146.861 200.588 146.563 199.869 146.563 199.12C146.563 198.371 146.861 197.652 147.39 197.122C147.92 196.592 148.638 196.293 149.387 196.292H221.49C221.862 196.292 222.23 196.365 222.573 196.506C222.917 196.648 223.229 196.856 223.492 197.119C223.755 197.382 223.963 197.694 224.106 198.037C224.248 198.38 224.321 198.748 224.321 199.12C224.321 199.491 224.248 199.859 224.106 200.203C223.963 200.546 223.755 200.858 223.492 201.121C223.229 201.383 222.917 201.591 222.573 201.733C222.23 201.875 221.862 201.948 221.49 201.947Z" fill="#E0E4E8"/>
<path d="M135.24 151.581C135.241 152.893 134.983 154.193 134.481 155.406C133.979 156.619 133.243 157.721 132.315 158.649C131.387 159.577 130.286 160.314 129.073 160.816C127.861 161.319 126.561 161.578 125.248 161.578C125.162 161.58 125.076 161.576 124.991 161.568C123.026 161.517 121.119 160.888 119.51 159.76C117.9 158.631 116.66 157.053 115.943 155.223C115.225 153.393 115.064 151.392 115.479 149.47C115.893 147.549 116.865 145.792 118.273 144.42C119.681 143.049 121.462 142.122 123.394 141.758C125.325 141.393 127.321 141.606 129.133 142.371C130.944 143.135 132.489 144.416 133.575 146.055C134.662 147.693 135.241 149.615 135.24 151.581V151.581Z" fill="#E0E4E8"/>
<path d="M124.219 204.342C129.739 204.342 134.213 199.867 134.213 194.348C134.213 188.829 129.739 184.354 124.219 184.354C118.7 184.354 114.226 188.829 114.226 194.348C114.226 199.867 118.7 204.342 124.219 204.342Z" fill="#E0E4E8"/>
<path d="M124.654 119.275C130.173 119.275 134.648 114.801 134.648 109.281C134.648 103.762 130.173 99.2876 124.654 99.2876C119.135 99.2876 114.66 103.762 114.66 109.281C114.66 114.801 119.135 119.275 124.654 119.275Z" fill="#E0E4E8"/>
<path d="M252.115 78.2282H231.57C230.07 78.2282 228.632 77.6324 227.571 76.5719C226.511 75.5114 225.915 74.0729 225.915 72.5731V57.3991C225.915 57.3327 225.934 57.2676 225.969 57.2113C226.004 57.155 226.055 57.1098 226.115 57.0809C226.174 57.052 226.241 57.0405 226.307 57.0478C226.373 57.0551 226.436 57.0808 226.488 57.1221L252.334 77.5977C252.392 77.6433 252.434 77.7056 252.454 77.7761C252.475 77.8466 252.473 77.9217 252.449 77.991C252.425 78.0603 252.38 78.1204 252.32 78.1629C252.26 78.2054 252.188 78.2282 252.115 78.2282Z" fill="#E0E4E8"/>
<path d="M135.241 151.581C135.241 152.893 134.983 154.193 134.481 155.406C133.979 156.619 133.244 157.721 132.316 158.649C131.388 159.577 130.286 160.314 129.074 160.816C127.861 161.319 126.561 161.578 125.249 161.578C125.163 161.58 125.077 161.576 124.991 161.568C123.7 158.347 123.203 154.864 123.54 151.411C123.878 147.958 125.041 144.637 126.931 141.727C129.256 142.126 131.365 143.333 132.886 145.136C134.406 146.939 135.24 149.222 135.241 151.581V151.581Z" fill="#29B061"/>
<path d="M146.56 146.811C146.561 146.061 146.859 145.342 147.39 144.811C147.92 144.281 148.639 143.982 149.39 143.981H164.45C165.33 145.77 165.955 147.673 166.307 149.636H149.39C148.64 149.635 147.921 149.338 147.39 148.808C146.86 148.279 146.561 147.56 146.56 146.811V146.811Z" fill="#29B061"/>
<path d="M166.658 153.525C166.659 155.435 166.406 157.337 165.906 159.18H149.39C148.64 159.18 147.921 158.882 147.391 158.352C146.86 157.822 146.562 157.103 146.562 156.353C146.562 155.603 146.86 154.884 147.391 154.354C147.921 153.823 148.64 153.525 149.39 153.525H166.658Z" fill="#29B061"/>
<path d="M167.901 166.428C165.357 170.599 161.634 173.921 157.202 175.975C152.77 178.029 147.829 178.723 143.003 177.969C138.176 177.215 133.682 175.046 130.089 171.738C126.495 168.43 123.963 164.13 122.813 159.383C121.662 154.635 121.946 149.654 123.627 145.067C125.308 140.481 128.312 136.496 132.258 133.617C136.204 130.738 140.915 129.093 145.795 128.891C150.676 128.689 155.507 129.939 159.677 132.483C165.263 135.899 169.266 141.391 170.808 147.755C172.35 154.119 171.304 160.835 167.901 166.428ZM131.002 143.922C129.094 147.05 128.157 150.673 128.308 154.333C128.46 157.993 129.693 161.527 131.853 164.486C134.012 167.446 137.001 169.698 140.441 170.959C143.88 172.22 147.617 172.433 151.177 171.57C154.738 170.707 157.962 168.808 160.444 166.113C162.925 163.418 164.551 160.047 165.117 156.427C165.683 152.808 165.162 149.102 163.621 145.778C162.081 142.454 159.589 139.662 156.461 137.754C152.266 135.202 147.229 134.417 142.456 135.574C137.684 136.73 133.564 139.732 131.002 143.922V143.922Z" fill="#82879B"/>
<path d="M260.338 150.106C267.317 150.106 272.975 144.448 272.975 137.468C272.975 130.489 267.317 124.831 260.338 124.831C253.358 124.831 247.7 130.489 247.7 137.468C247.7 144.448 253.358 150.106 260.338 150.106Z" fill="#FDE7E6"/>
<path d="M259.521 208.315C259.277 207.556 259.197 206.753 259.285 205.961C259.373 205.168 259.627 204.403 260.031 203.715C260.436 203.028 260.981 202.434 261.631 201.972C262.281 201.509 263.021 201.19 263.803 201.034C264.051 200.985 264.302 200.954 264.554 200.941L277.866 179.576L265.706 168.016C265.241 167.575 264.869 167.045 264.61 166.459C264.351 165.872 264.211 165.241 264.198 164.6C264.184 163.959 264.298 163.322 264.532 162.725C264.767 162.128 265.117 161.584 265.563 161.123C266.009 160.663 266.541 160.295 267.13 160.041C267.719 159.788 268.352 159.654 268.993 159.646C269.634 159.639 270.27 159.758 270.865 159.998C271.459 160.238 272.001 160.593 272.457 161.043L289.246 177.597L289.28 177.639C289.799 178.429 290.05 179.365 289.995 180.309C289.94 181.253 289.582 182.154 288.974 182.879L270.322 204.938C270.378 205.115 270.424 205.295 270.461 205.477C270.617 206.259 270.606 207.065 270.428 207.843C270.251 208.62 269.911 209.352 269.432 209.989C268.952 210.626 268.343 211.155 267.645 211.54C266.947 211.925 266.175 212.159 265.38 212.225C265.219 212.239 265.059 212.246 264.9 212.246C263.704 212.241 262.539 211.859 261.573 211.153C260.607 210.447 259.889 209.453 259.521 208.315V208.315Z" fill="#FDE7E6"/>
<path d="M239.524 313.35L233.216 313.349L230.215 289.018L239.525 289.019L239.524 313.35Z" fill="#FDE7E6"/>
<path d="M241.133 319.465L220.793 319.464V319.206C220.793 318.167 220.998 317.137 221.396 316.177C221.793 315.216 222.377 314.344 223.112 313.608C223.847 312.873 224.72 312.29 225.68 311.892C226.641 311.495 227.67 311.29 228.71 311.29H228.71L241.133 311.29L241.133 319.465Z" fill="#677285"/>
<path d="M302.222 304.628L296.802 307.855L281.775 288.485L289.775 283.722L302.222 304.628Z" fill="#FDE7E6"/>
<path d="M306.734 309.059L289.257 319.464L289.125 319.243C288.593 318.35 288.243 317.361 288.093 316.332C287.944 315.303 287.998 314.255 288.254 313.247C288.509 312.239 288.961 311.292 289.582 310.459C290.204 309.625 290.984 308.923 291.877 308.391L291.878 308.391L302.552 302.035L306.734 309.059Z" fill="#677285"/>
<path d="M229.419 302.635C225.194 252.876 222.68 206.651 238.127 187.795L238.247 187.648L264.244 198.048L264.287 198.141C264.374 198.331 273.02 217.35 271.004 230.141L277.416 259.639L298.324 294.648C298.493 294.93 298.599 295.244 298.637 295.57C298.674 295.896 298.642 296.227 298.543 296.539C298.443 296.852 298.278 297.14 298.058 297.384C297.839 297.628 297.57 297.823 297.269 297.955L288.183 301.953C287.67 302.176 287.094 302.207 286.561 302.04C286.027 301.873 285.571 301.52 285.277 301.044L262.532 263.957L249.685 235.51C249.616 235.356 249.497 235.229 249.348 235.149C249.199 235.068 249.027 235.039 248.86 235.066C248.692 235.093 248.539 235.174 248.422 235.297C248.305 235.42 248.232 235.578 248.215 235.747L241.093 302.685C241.034 303.254 240.765 303.781 240.34 304.163C239.915 304.546 239.363 304.757 238.791 304.756H231.727C231.148 304.753 230.59 304.533 230.163 304.141C229.737 303.749 229.471 303.212 229.419 302.635V302.635Z" fill="#808599"/>
<path d="M238.214 188.189L238.091 188.13L238.071 187.994C237.1 181.197 238.25 173.645 241.488 165.547C243.084 161.584 246.05 158.326 249.847 156.367C253.644 154.408 258.018 153.878 262.173 154.874V154.874C264.566 155.464 266.811 156.544 268.765 158.047C270.719 159.549 272.339 161.441 273.524 163.603C274.693 165.742 275.406 168.101 275.616 170.53C275.826 172.959 275.529 175.405 274.745 177.714C270.662 189.651 265.367 200.82 265.314 200.931L265.203 201.164L238.214 188.189Z" fill="#29B061"/>
<path d="M209.851 171.259C210.477 170.765 211.2 170.409 211.974 170.213C212.747 170.018 213.553 169.989 214.338 170.127C215.124 170.265 215.871 170.567 216.532 171.014C217.192 171.461 217.751 172.042 218.171 172.72C218.303 172.936 218.42 173.16 218.521 173.391L243.195 178.378L249.764 162.94C250.015 162.351 250.381 161.816 250.839 161.368C251.298 160.921 251.841 160.568 252.436 160.331C253.032 160.094 253.669 159.978 254.31 159.988C254.951 159.999 255.583 160.136 256.171 160.393C256.758 160.649 257.289 161.019 257.733 161.482C258.177 161.945 258.524 162.491 258.756 163.088C258.987 163.686 259.098 164.324 259.081 164.965C259.065 165.606 258.922 166.237 258.66 166.822L249.033 188.345L249.006 188.391C248.448 189.154 247.659 189.717 246.755 189.996C245.852 190.275 244.882 190.255 243.991 189.94L216.796 180.194C216.65 180.308 216.498 180.414 216.341 180.513C215.663 180.933 214.904 181.205 214.113 181.311C213.323 181.417 212.519 181.355 211.754 181.129C210.989 180.902 210.281 180.517 209.675 179.998C209.07 179.479 208.581 178.838 208.24 178.117C208.171 177.971 208.108 177.824 208.052 177.675C207.638 176.552 207.589 175.328 207.912 174.176C208.235 173.023 208.914 172.003 209.851 171.259V171.259Z" fill="#FDE7E6"/>
<path d="M305.992 151.002C304.775 148.845 303.001 146.87 300.657 146.073C297.629 145.043 294.35 146.139 291.237 146.871C288.838 147.435 286.333 147.78 283.915 147.304C281.498 146.829 279.166 145.422 278.066 143.217C276.447 139.974 277.811 136.106 277.712 132.483C277.662 130.51 277.164 128.575 276.257 126.823C275.349 125.071 274.056 123.548 272.475 122.368C270.893 121.188 269.064 120.383 267.126 120.013C265.188 119.643 263.191 119.717 261.286 120.231C258.306 119.371 255.607 119.291 253.763 121.583C251.443 121.583 249.218 122.505 247.578 124.145C245.937 125.785 245.016 128.01 245.016 130.33H253.38C252.983 132.463 253.436 134.666 254.642 136.469C256.119 138.638 258.686 140.207 259.18 142.784C259.659 145.282 257.962 147.651 256.181 149.466C254.401 151.282 252.335 153.08 251.779 155.562C251.438 157.445 251.825 159.388 252.861 160.998C253.896 162.588 255.179 164.001 256.662 165.184C263.343 170.908 271.284 174.97 279.835 177.039C285.857 178.488 292.444 178.864 298.035 176.197C300.271 175.13 302.264 173.615 303.89 171.745C305.516 169.875 306.74 167.691 307.486 165.328C308.233 162.965 308.485 160.474 308.228 158.01C307.971 155.545 307.21 153.16 305.992 151.002V151.002Z" fill="#62616E"/>
<path d="M307.879 320H210.118C209.982 320 209.851 319.946 209.754 319.849C209.658 319.753 209.604 319.622 209.604 319.485C209.604 319.349 209.658 319.218 209.754 319.122C209.851 319.025 209.982 318.971 210.118 318.971H307.879C308.016 318.971 308.147 319.025 308.243 319.122C308.34 319.218 308.394 319.349 308.394 319.485C308.394 319.622 308.34 319.753 308.243 319.849C308.147 319.946 308.016 320 307.879 320Z" fill="#E0E4E8"/>
<path fill-rule="evenodd" clip-rule="evenodd" d="M285.351 15.1746C282.72 15.2985 223.469 31.5781 223.469 31.5781L237.563 36.0306L244.099 49.2115C244.099 49.2115 287.983 15.0506 285.351 15.1746Z" fill="#E0E4E8"/>
<mask id="mask0_327_31936" style="mask-type:luminance" maskUnits="userSpaceOnUse" x="223" y="15" width="63" height="35">
<path fill-rule="evenodd" clip-rule="evenodd" d="M285.351 15.1746C282.72 15.2985 223.469 31.5781 223.469 31.5781L237.563 36.0306L244.099 49.2115C244.099 49.2115 287.983 15.0506 285.351 15.1746Z" fill="white"/>
</mask>
<g mask="url(#mask0_327_31936)">
<path fill-rule="evenodd" clip-rule="evenodd" d="M237.413 36.2932L285.316 15.1572L243.95 49.6211L237.413 36.2932Z" fill="#F3F5F7"/>
</g>
<path fill-rule="evenodd" clip-rule="evenodd" d="M266.504 46.6497L249.794 40.5846L284.902 15.3702L266.504 46.6497Z" fill="#E0E4E8"/>
<path fill-rule="evenodd" clip-rule="evenodd" d="M228.975 59.7777C230.732 57.7255 232.52 55.593 234.341 53.3804L235.831 54.679C234.002 56.9025 232.204 59.0459 230.438 61.1093L228.975 59.7777ZM217.885 71.8468C219.729 69.909 221.615 67.8667 223.542 65.7201L224.972 67.0917C223.031 69.2538 221.131 71.3117 219.272 73.2653L217.885 71.8468ZM212.07 77.4145C209.985 79.4492 207.96 81.3363 205.994 83.0759L207.248 84.6268C209.241 82.863 211.293 80.9515 213.403 78.8924L212.07 77.4145ZM192.873 92.6437C195.022 91.325 197.271 89.7639 199.619 87.9604L200.761 89.6108C198.355 91.4587 196.045 93.0624 193.829 94.422L192.873 92.6437ZM185.667 95.8882C182.897 96.969 180.344 97.5412 178.009 97.611L177.962 99.7099C180.538 99.6328 183.315 99.0104 186.292 97.8488L185.667 95.8882ZM165.177 90.2734C166.755 92.6584 168.556 94.4318 170.579 95.605L169.522 97.4501C167.233 96.1234 165.222 94.1432 163.488 91.5211L165.177 90.2734ZM161.281 83.1195C161.212 82.924 161.144 82.7263 161.076 82.5267C160.198 79.9261 159.706 77.5523 159.584 75.4043L157.584 75.6339C157.717 77.9805 158.247 80.5357 159.182 83.3034C159.252 83.5116 159.323 83.7178 159.395 83.9219L161.281 83.1195ZM166.65 62.9898C164.043 64.2164 162.092 65.911 160.855 68.0602L159.146 67.0654C160.622 64.501 162.915 62.5087 165.901 61.1038L166.65 62.9898ZM174.288 61.3711C176.737 61.0745 179.408 61.0183 182.232 61.1987L182.462 59.0904C179.523 58.9027 176.732 58.9614 174.157 59.2733L174.288 61.3711ZM197.878 64.5559C195.318 63.7375 192.724 63.0651 190.155 62.5543L190.636 60.4507C193.275 60.9755 195.938 61.6659 198.565 62.5058L197.878 64.5559ZM205.592 67.5859C208.074 68.6954 210.428 69.9262 212.601 71.2543L213.698 69.4128C211.455 68.0419 209.03 66.7739 206.476 65.6322L205.592 67.5859ZM224.457 81.7643C223.15 79.77 221.409 77.8233 219.282 75.9627L220.633 74.3314C222.885 76.3008 224.741 78.3763 226.149 80.5258L224.457 81.7643ZM227.632 89.0463C227.75 90.2914 227.691 91.5378 227.45 92.7844C227.195 94.1032 226.853 95.405 226.424 96.6902L228.287 97.277C228.746 95.9 229.113 94.5045 229.386 93.0908C229.667 91.6387 229.736 90.1846 229.598 88.7366L227.632 89.0463ZM218.045 110.288C220.004 108.191 221.678 106.044 223.069 103.846L224.719 104.92C223.252 107.238 221.493 109.495 219.442 111.691L218.045 110.288ZM212.018 115.524C209.986 117.164 207.766 118.77 205.355 120.341L206.36 122.087C208.831 120.478 211.111 118.829 213.201 117.141L212.018 115.524ZM191.052 127.814C193.629 126.599 196.072 125.359 198.383 124.094L199.251 125.93C196.902 127.216 194.421 128.475 191.807 129.707L191.052 127.814ZM183.405 130.696C180.956 131.709 178.407 132.703 175.758 133.678L176.345 135.646C179.019 134.662 181.593 133.658 184.068 132.634L183.405 130.696ZM163.116 137.551C164.751 137.042 166.356 136.527 167.93 136.006L168.452 137.996C166.866 138.521 165.25 139.04 163.604 139.552L163.116 137.551Z" fill="#C7D0D9"/>
<path d="M212.467 177.351C212.185 178.12 211.609 178.746 210.866 179.09C210.123 179.435 209.274 179.47 208.505 179.188L168.897 164.676C168.517 164.537 168.167 164.324 167.869 164.049C167.571 163.775 167.33 163.444 167.159 163.076C166.989 162.708 166.893 162.311 166.876 161.905C166.859 161.5 166.923 161.096 167.062 160.715C167.202 160.335 167.415 159.985 167.69 159.687C167.964 159.388 168.295 159.147 168.663 158.976C169.031 158.806 169.429 158.709 169.834 158.692C170.239 158.676 170.643 158.739 171.024 158.878L210.632 173.39C211.4 173.672 212.026 174.248 212.37 174.99C212.714 175.733 212.749 176.582 212.467 177.351V177.351Z" fill="#82879B"/>
</g>
<defs>
<clipPath id="clip0_327_31936">
<rect width="320" height="320" fill="white"/>
</clipPath>
</defs>
</svg>
