<svg width="32" height="32" viewBox="0 0 32 32" fill="none" xmlns="http://www.w3.org/2000/svg">
<g id="Frame 427320126">
<rect width="32" height="32" fill="white"/>
<g id="Group 427318800">
<g id="Group 427318666">
<path id="Vector 503" d="M29.642 9.98464L18 3.35767V22.3559L29.642 28.9829V9.98464Z" fill="url(#paint0_linear_544_33537)"/>
<path id="Vector 504" d="M19.113 3L18 3.35764L29.642 9.98462L30.6356 9.44787L19.113 3Z" fill="url(#paint1_linear_544_33537)"/>
<path id="Vector 505" d="M30.5863 9.4209L29.6426 9.9843V29.1615L30.5863 28.2399V9.4209Z" fill="url(#paint2_linear_544_33537)"/>
</g>
<g id="Group 427318662" filter="url(#filter0_b_544_33537)">
<path id="Vector 515" d="M27.1377 18.0418L19.1172 13.2295V14.9673L27.1377 19.7795V18.0418Z" fill="url(#paint3_linear_544_33537)"/>
<path id="Vector 516" d="M19.6901 13L19.1172 13.2292L27.1377 18.0414L27.5769 17.8123L19.6901 13Z" fill="url(#paint4_linear_544_33537)"/>
<path id="Vector 517" d="M27.1367 19.7795V18.0417L27.5664 17.7266V19.4452L27.1367 19.7795Z" fill="#00B67F"/>
</g>
<g id="Group 427318803" filter="url(#filter1_b_544_33537)">
<path id="Vector 515_2" d="M27.4365 22.9463L19.416 18.134V19.8718L27.4365 24.6841V22.9463Z" fill="url(#paint5_linear_544_33537)"/>
<path id="Vector 516_2" d="M19.9889 17.9045L19.416 18.1337L27.4365 22.946L27.8757 22.7168L19.9889 17.9045Z" fill="url(#paint6_linear_544_33537)"/>
<path id="Vector 517_2" d="M27.4355 24.684V22.9463L27.8652 22.6311V24.3498L27.4355 24.684Z" fill="#00B67F"/>
</g>
<g id="Group 427318676" filter="url(#filter2_b_544_33537)">
<path id="Vector 515_3" d="M27.18 11.0131L24.1172 9.16309V13.0295L27.18 14.8795V11.0131Z" fill="url(#paint7_linear_544_33537)"/>
<path id="Vector 516_3" d="M24.524 9L24.1172 9.16273L27.1799 11.0128L27.4918 10.8501L24.524 9Z" fill="url(#paint8_linear_544_33537)"/>
<path id="Vector 517_3" d="M27.1797 14.8912L27.1797 11.0129L27.4848 10.7891L27.4848 14.6538L27.1797 14.8912Z" fill="#00B67F"/>
</g>
</g>
<g id="Group">
<path id="Vector" d="M0.115234 21.1707L4.50162 18.6251L5.91538 18.2229L1.53314 20.7726L0.115234 21.1707Z" fill="url(#paint9_linear_544_33537)"/>
<path id="Vector_2" d="M8.13416 29.0195L12.5164 26.4697L12.2759 28.2981L7.87305 30.8642L8.13416 29.0195Z" fill="url(#paint10_linear_544_33537)"/>
<path id="Vector_3" d="M11.2568 30.6357L15.639 28.0859C15.6257 28.1055 15.6088 28.1223 15.5893 28.1357L11.207 30.6979C11.2255 30.6849 11.2422 30.6696 11.2568 30.6523" fill="url(#paint11_linear_544_33537)"/>
<path id="Vector_4" d="M1.45117 14.9033L6.01169 12.4158L7.75691 14.107L3.37052 16.6526L1.45117 14.9033Z" fill="url(#paint12_linear_544_33537)"/>
<path id="Vector_5" d="M12.616 28.6459L16.9982 26.0962L15.6381 28.1032L11.2559 30.6488L12.616 28.6459Z" fill="url(#paint13_linear_544_33537)"/>
<path id="Vector_6" d="M11.123 26.308L15.5053 23.7583L16.998 26.0961L12.6448 28.5836L11.123 26.308Z" fill="url(#paint14_linear_544_33537)"/>
<g id="Vector_7">
<path d="M8.17188 18.6784L12.5541 16.1245L12.7034 16.2945L8.31698 18.8442L8.17188 18.6784Z" fill="url(#paint15_linear_544_33537)"/>
<path d="M8.31698 18.8442L12.7034 16.2986L12.9687 16.6096L8.58647 19.1593C8.4994 19.0515 8.40819 18.9479 8.31698 18.8442Z" fill="url(#paint16_linear_544_33537)"/>
<path d="M8.58647 19.1593L12.9687 16.6096L13.1802 16.8708L8.79791 19.4164L8.58647 19.1593Z" fill="url(#paint17_linear_544_33537)"/>
<path d="M8.79791 19.4164L13.1802 16.8708C13.2423 16.9496 13.3045 17.0283 13.3626 17.1112L8.98033 19.6568L8.79791 19.4164Z" fill="url(#paint18_linear_544_33537)"/>
<path d="M8.98033 19.6568L13.3626 17.1112C13.4372 17.2066 13.5077 17.3061 13.574 17.4056L9.19177 19.9512C9.12129 19.8517 9.05496 19.7563 8.98033 19.6568Z" fill="url(#paint19_linear_544_33537)"/>
<path d="M9.19177 19.9512L13.574 17.4056C13.574 17.4388 13.6155 17.4719 13.6404 17.5051L9.25811 20.0507L9.19177 19.9512Z" fill="url(#paint20_linear_544_33537)"/>
</g>
<path id="Vector_8" d="M7.84961 16.4113L12.2319 13.8657L12.5508 16.1295L8.1686 18.6751L7.84961 16.4113Z" fill="url(#paint21_linear_544_33537)"/>
<path id="Vector_9" d="M10.9355 24.268L15.3178 21.7224L15.5458 23.8161L11.1636 26.3617L10.9355 24.268Z" fill="url(#paint22_linear_544_33537)"/>
<path id="Vector_10" d="M9.25195 20.0517L13.6342 17.502L15.5746 17.9532L11.1923 20.4988L9.25195 20.0517Z" fill="url(#paint23_linear_544_33537)"/>
<path id="Vector_11" d="M3.31836 16.623L7.7006 14.0732L9.64097 14.5245L5.25873 17.0701L3.31836 16.623Z" fill="url(#paint24_linear_544_33537)"/>
<path id="Vector_12" d="M11.1934 20.4987L15.5756 17.9531L16.7902 21.5352L12.5696 23.9608L11.1934 20.4987Z" fill="url(#paint25_linear_544_33537)"/>
<path id="Vector_13" d="M12.4708 28.3061C12.539 28.3725 12.5842 28.459 12.5998 28.553C12.6155 28.6469 12.6008 28.7434 12.5579 28.8284L11.256 30.6361C11.2199 30.6778 11.1689 30.7038 11.1139 30.7084C11.0589 30.7131 11.0043 30.696 10.9617 30.6609C10.9191 30.6342 10.8801 30.6022 10.8456 30.5656L9.22868 28.9072C8.88311 29.0409 8.50802 29.0796 8.14245 29.0191L7.89784 30.8475C7.86882 30.9968 7.74858 31.0631 7.57446 30.9636L4.9874 29.4669C4.90117 29.4138 4.82756 29.3425 4.77171 29.258C4.71586 29.1735 4.67911 29.0778 4.66401 28.9777L4.43599 26.8799C4.038 26.4535 3.67476 25.996 3.34976 25.5117L1.7287 25.3168C1.68195 25.308 1.63707 25.2912 1.59603 25.2671C1.4671 25.1835 1.36944 25.0596 1.31825 24.9147L0.0288697 21.5979C-0.0291732 21.3989 -0.000151742 21.2124 0.12008 21.1833L1.53384 20.7688C1.48702 20.5117 1.46756 20.2505 1.4758 19.9893C1.48009 19.7519 1.50087 19.515 1.53799 19.2804L0.157394 17.2696C0.0904486 17.2023 0.0464089 17.1156 0.0315248 17.0218C0.0166408 16.928 0.0316684 16.832 0.074475 16.7472L1.3763 14.9271C1.41775 14.8235 1.52555 14.8194 1.64163 14.8815C1.68424 14.9082 1.72326 14.9403 1.75772 14.9769L3.37463 16.6353C3.7265 16.5229 4.09898 16.4904 4.46501 16.5399L4.70547 14.7157C4.7345 14.5623 4.85058 14.496 5.02886 14.5996L7.61591 16.0922C7.70263 16.1457 7.77654 16.2177 7.83242 16.3029C7.88829 16.3882 7.92478 16.4846 7.9393 16.5855L8.17147 18.6792C8.5658 19.1102 8.9288 19.5688 9.2577 20.0515L10.8746 20.2422C10.9208 20.2511 10.9654 20.2665 11.0073 20.2878C11.1364 20.3749 11.2338 20.5015 11.2851 20.6485L12.5703 23.9653C12.6325 24.1726 12.5993 24.355 12.4832 24.3799L11.0985 24.7945C11.1462 25.0499 11.1643 25.3101 11.1524 25.5697C11.1582 25.812 11.1486 26.0543 11.1234 26.2953L12.4708 28.3061ZM6.29336 25.549C7.61591 26.316 8.71044 25.7273 8.71458 24.1726C8.67647 23.3323 8.43842 22.5134 8.02019 21.7836C7.60197 21.0539 7.01565 20.4345 6.30995 19.9769C4.95838 19.1933 3.86385 19.8484 3.85971 21.3699C3.91181 22.2079 4.15897 23.0222 4.5815 23.7477C5.00403 24.4733 5.59023 25.0901 6.29336 25.549" fill="url(#paint26_linear_544_33537)"/>
<path id="Vector_14" d="M4.94531 14.5456L9.32756 12L12.2298 13.8657L7.84759 16.4154L4.94531 14.5456Z" fill="url(#paint27_linear_544_33537)"/>
<ellipse id="Ellipse 700" cx="6.33916" cy="22.827" rx="2.15626" ry="3.52529" transform="rotate(-31.9955 6.33916 22.827)" fill="url(#paint28_linear_544_33537)"/>
<path id="Intersect" d="M8.78544 23.1765L5.39039 25.1081C5.06128 24.8019 4.75196 24.4292 4.48454 24.0012C3.45294 22.35 3.4354 20.4999 4.44536 19.869C5.45533 19.238 7.11034 20.065 8.14195 21.7162C8.44281 22.1978 8.65741 22.6962 8.78544 23.1765Z" fill="url(#paint29_linear_544_33537)"/>
</g>
<g id="12">
<path id="Vector_15" d="M18.0011 7.9236C18.0011 7.09739 17.7644 6.19932 17.3672 5.3562L12.9297 7.91726C13.4594 8.68431 14.1194 9.33867 14.8315 9.74861C15.1791 9.95848 13.7531 10.646 14.1543 10.7087L14.4328 11.3318L17.053 9.98245C17.6369 9.66127 18.0011 8.94634 18.0011 7.9236Z" fill="#E0E4E8"/>
<path id="Vector_16" d="M14.8301 2.43223C13.9483 1.92297 13.1502 1.8786 12.5762 2.22092L10.3926 3.53198L10.6711 4.26216C10.4873 4.61927 11.6605 3.7198 11.6605 4.26216C11.6605 5.45958 12.1571 6.80702 12.9283 7.9185L17.3658 5.35533C16.7847 4.13467 15.8655 3.03023 14.8301 2.43223Z" fill="url(#paint30_linear_544_33537)"/>
<path id="Vector_17" d="M15.3393 9.31681C15.3393 11.3376 13.92 12.1568 12.1696 11.1482C10.4193 10.1395 9 7.67776 9 5.65624C9 3.63472 10.4193 2.81554 12.1696 3.82489C13.92 4.83425 15.3393 7.29529 15.3393 9.31681Z" fill="url(#paint31_linear_544_33537)"/>
<path id="Vector_18" d="M14.0799 8.6206C14.337 10.0824 13.6136 10.8163 12.4655 10.266C11.3175 9.71575 10.1787 8.08735 9.92203 6.62812C9.66541 5.1689 10.3883 4.43242 11.5363 4.98206C12.6842 5.53171 13.8233 7.16138 14.0799 8.6206Z" fill="url(#paint32_linear_544_33537)"/>
<path id="Vector_19" d="M12.7483 9.98129C11.5915 9.42308 10.4437 7.77776 10.1843 6.30273C10.0751 5.6815 10.1409 5.18975 10.3398 4.87063C9.94234 5.12664 9.76469 5.73343 9.91394 6.58209C10.1738 8.05969 11.3213 9.70372 12.4779 10.2606C13.1476 10.5833 13.6734 10.4696 13.9471 10.0307C13.6534 10.2195 13.2394 10.2181 12.7483 9.98129Z" fill="#E0E4E8"/>
</g>
</g>
<defs>
<filter id="filter0_b_544_33537" x="16.1172" y="10" width="14.459" height="12.7795" filterUnits="userSpaceOnUse" color-interpolation-filters="sRGB">
<feFlood flood-opacity="0" result="BackgroundImageFix"/>
<feGaussianBlur in="BackgroundImageFix" stdDeviation="1.5"/>
<feComposite in2="SourceAlpha" operator="in" result="effect1_backgroundBlur_544_33537"/>
<feBlend mode="normal" in="SourceGraphic" in2="effect1_backgroundBlur_544_33537" result="shape"/>
</filter>
<filter id="filter1_b_544_33537" x="16.416" y="14.9045" width="14.459" height="12.7795" filterUnits="userSpaceOnUse" color-interpolation-filters="sRGB">
<feFlood flood-opacity="0" result="BackgroundImageFix"/>
<feGaussianBlur in="BackgroundImageFix" stdDeviation="1.5"/>
<feComposite in2="SourceAlpha" operator="in" result="effect1_backgroundBlur_544_33537"/>
<feBlend mode="normal" in="SourceGraphic" in2="effect1_backgroundBlur_544_33537" result="shape"/>
</filter>
<filter id="filter2_b_544_33537" x="21.1172" y="6" width="9.375" height="11.8911" filterUnits="userSpaceOnUse" color-interpolation-filters="sRGB">
<feFlood flood-opacity="0" result="BackgroundImageFix"/>
<feGaussianBlur in="BackgroundImageFix" stdDeviation="1.5"/>
<feComposite in2="SourceAlpha" operator="in" result="effect1_backgroundBlur_544_33537"/>
<feBlend mode="normal" in="SourceGraphic" in2="effect1_backgroundBlur_544_33537" result="shape"/>
</filter>
<linearGradient id="paint0_linear_544_33537" x1="28.5033" y1="25.7235" x2="9.9512" y2="31.0447" gradientUnits="userSpaceOnUse">
<stop stop-color="#F8FAFB"/>
<stop offset="1" stop-color="#E0E4E8"/>
</linearGradient>
<linearGradient id="paint1_linear_544_33537" x1="24.3218" y1="7.8136" x2="27.9839" y2="7.32349" gradientUnits="userSpaceOnUse">
<stop stop-color="#F8FAFB"/>
<stop offset="1" stop-color="#E0E4E8"/>
</linearGradient>
<linearGradient id="paint2_linear_544_33537" x1="30.6259" y1="28.363" x2="29.7847" y2="28.3696" gradientUnits="userSpaceOnUse">
<stop stop-color="#F8FAFB"/>
<stop offset="1" stop-color="#E0E4E8"/>
</linearGradient>
<linearGradient id="paint3_linear_544_33537" x1="26.3532" y1="18.9464" x2="17.8336" y2="21.4552" gradientUnits="userSpaceOnUse">
<stop stop-color="#27E5AC"/>
<stop offset="1" stop-color="#12B685"/>
</linearGradient>
<linearGradient id="paint4_linear_544_33537" x1="19.4904" y1="18.0882" x2="20.5951" y2="13.4214" gradientUnits="userSpaceOnUse">
<stop stop-color="#C4FFED"/>
<stop offset="1" stop-color="#1BD9A0"/>
</linearGradient>
<linearGradient id="paint5_linear_544_33537" x1="26.652" y1="23.8509" x2="18.1325" y2="26.3598" gradientUnits="userSpaceOnUse">
<stop stop-color="#27E5AC"/>
<stop offset="1" stop-color="#12B685"/>
</linearGradient>
<linearGradient id="paint6_linear_544_33537" x1="19.7892" y1="22.9927" x2="20.8939" y2="18.3259" gradientUnits="userSpaceOnUse">
<stop stop-color="#C4FFED"/>
<stop offset="1" stop-color="#1BD9A0"/>
</linearGradient>
<linearGradient id="paint7_linear_544_33537" x1="26.8805" y1="14.1524" x2="23.4026" y2="14.6005" gradientUnits="userSpaceOnUse">
<stop stop-color="#27E5AC"/>
<stop offset="1" stop-color="#12B685"/>
</linearGradient>
<linearGradient id="paint8_linear_544_33537" x1="24.2661" y1="11.0315" x2="24.7075" y2="9.1684" gradientUnits="userSpaceOnUse">
<stop stop-color="#C4FFED"/>
<stop offset="1" stop-color="#1BD9A0"/>
</linearGradient>
<linearGradient id="paint9_linear_544_33537" x1="3.01531" y1="18.2229" x2="3.01531" y2="21.1707" gradientUnits="userSpaceOnUse">
<stop stop-color="#1DDEA4"/>
<stop offset="1" stop-color="#039D6F"/>
</linearGradient>
<linearGradient id="paint10_linear_544_33537" x1="13.059" y1="30.6055" x2="8.99018" y2="31.3442" gradientUnits="userSpaceOnUse">
<stop stop-color="#1BD9A0"/>
<stop offset="1" stop-color="#0A8560"/>
</linearGradient>
<linearGradient id="paint11_linear_544_33537" x1="13.423" y1="28.0859" x2="13.423" y2="30.6979" gradientUnits="userSpaceOnUse">
<stop stop-color="#1DDEA4"/>
<stop offset="1" stop-color="#039D6F"/>
</linearGradient>
<linearGradient id="paint12_linear_544_33537" x1="7.08425" y1="13.4166" x2="5.94602" y2="16.6402" gradientUnits="userSpaceOnUse">
<stop stop-color="#19EBAC"/>
<stop offset="1" stop-color="#12B584"/>
</linearGradient>
<linearGradient id="paint13_linear_544_33537" x1="17.6693" y1="30.3808" x2="12.7047" y2="31.4567" gradientUnits="userSpaceOnUse">
<stop stop-color="#1BD9A0"/>
<stop offset="1" stop-color="#0A8560"/>
</linearGradient>
<linearGradient id="paint14_linear_544_33537" x1="13.1731" y1="24.0081" x2="17.4615" y2="24.68" gradientUnits="userSpaceOnUse">
<stop stop-color="#7FFFD8"/>
<stop offset="1" stop-color="#14BB88"/>
</linearGradient>
<linearGradient id="paint15_linear_544_33537" x1="12.7508" y1="16.958" x2="12.0248" y2="20.5112" gradientUnits="userSpaceOnUse">
<stop stop-color="#11CD94"/>
<stop offset="1" stop-color="#148865"/>
</linearGradient>
<linearGradient id="paint16_linear_544_33537" x1="12.7508" y1="16.958" x2="12.0248" y2="20.5112" gradientUnits="userSpaceOnUse">
<stop stop-color="#11CD94"/>
<stop offset="1" stop-color="#148865"/>
</linearGradient>
<linearGradient id="paint17_linear_544_33537" x1="12.7508" y1="16.958" x2="12.0248" y2="20.5112" gradientUnits="userSpaceOnUse">
<stop stop-color="#11CD94"/>
<stop offset="1" stop-color="#148865"/>
</linearGradient>
<linearGradient id="paint18_linear_544_33537" x1="12.7508" y1="16.958" x2="12.0248" y2="20.5112" gradientUnits="userSpaceOnUse">
<stop stop-color="#11CD94"/>
<stop offset="1" stop-color="#148865"/>
</linearGradient>
<linearGradient id="paint19_linear_544_33537" x1="12.7508" y1="16.958" x2="12.0248" y2="20.5112" gradientUnits="userSpaceOnUse">
<stop stop-color="#11CD94"/>
<stop offset="1" stop-color="#148865"/>
</linearGradient>
<linearGradient id="paint20_linear_544_33537" x1="12.7508" y1="16.958" x2="12.0248" y2="20.5112" gradientUnits="userSpaceOnUse">
<stop stop-color="#11CD94"/>
<stop offset="1" stop-color="#148865"/>
</linearGradient>
<linearGradient id="paint21_linear_544_33537" x1="12.0493" y1="15.0018" x2="10.333" y2="18.1944" gradientUnits="userSpaceOnUse">
<stop stop-color="#19EBAC"/>
<stop offset="1" stop-color="#12B584"/>
</linearGradient>
<linearGradient id="paint22_linear_544_33537" x1="14.7959" y1="22.7073" x2="13.6382" y2="26.7495" gradientUnits="userSpaceOnUse">
<stop stop-color="#11CD94"/>
<stop offset="1" stop-color="#148865"/>
</linearGradient>
<linearGradient id="paint23_linear_544_33537" x1="11.4582" y1="17.6571" x2="15.862" y2="18.8527" gradientUnits="userSpaceOnUse">
<stop stop-color="#7FFFD8"/>
<stop offset="1" stop-color="#14BB88"/>
</linearGradient>
<linearGradient id="paint24_linear_544_33537" x1="6.47966" y1="14.0732" x2="6.47966" y2="17.0701" gradientUnits="userSpaceOnUse">
<stop stop-color="#1DDEA4"/>
<stop offset="1" stop-color="#039D6F"/>
</linearGradient>
<linearGradient id="paint25_linear_544_33537" x1="16.1932" y1="19.3723" x2="13.9933" y2="23.2721" gradientUnits="userSpaceOnUse">
<stop stop-color="#19EBAC"/>
<stop offset="1" stop-color="#12B584"/>
</linearGradient>
<linearGradient id="paint26_linear_544_33537" x1="0.708285" y1="17.6663" x2="11.3314" y2="30.1028" gradientUnits="userSpaceOnUse">
<stop stop-color="#C4FFED"/>
<stop offset="1" stop-color="#1BD9A0"/>
</linearGradient>
<linearGradient id="paint27_linear_544_33537" x1="7.48724" y1="12.2285" x2="12.7001" y2="13.3353" gradientUnits="userSpaceOnUse">
<stop stop-color="#7FFFD8"/>
<stop offset="1" stop-color="#14BB88"/>
</linearGradient>
<linearGradient id="paint28_linear_544_33537" x1="7.79393" y1="20.7985" x2="5.25146" y2="26.2625" gradientUnits="userSpaceOnUse">
<stop stop-color="#11CD94"/>
<stop offset="1" stop-color="#148865"/>
</linearGradient>
<linearGradient id="paint29_linear_544_33537" x1="7.95809" y1="20.8144" x2="6.52405" y2="25.516" gradientUnits="userSpaceOnUse">
<stop stop-color="#11CD94"/>
<stop offset="1" stop-color="#148865"/>
</linearGradient>
<linearGradient id="paint30_linear_544_33537" x1="12" y1="2.5" x2="15.3427" y2="6.5434" gradientUnits="userSpaceOnUse">
<stop stop-color="#F8FAFB"/>
<stop offset="1" stop-color="#E0E4E8"/>
</linearGradient>
<linearGradient id="paint31_linear_544_33537" x1="14.7192" y1="10.5384" x2="5.895" y2="14.8522" gradientUnits="userSpaceOnUse">
<stop stop-color="#F8FAFB"/>
<stop offset="1" stop-color="#E0E4E8"/>
</linearGradient>
<linearGradient id="paint32_linear_544_33537" x1="10.5" y1="8" x2="13.1594" y2="7.62222" gradientUnits="userSpaceOnUse">
<stop stop-color="#F8FAFB"/>
<stop offset="1" stop-color="#E0E4E8"/>
</linearGradient>
</defs>
</svg>
