<svg width="32" height="32" viewBox="0 0 32 32" fill="none" xmlns="http://www.w3.org/2000/svg">
<g clip-path="url(#clip0_354_67073)">
<path d="M8.30859 14.3916L15.7323 18.7936L8.30859 23.1957L0.884929 18.7936L8.30859 14.3916Z" fill="url(#paint0_linear_354_67073)"/>
<rect width="8.63069" height="8.80408" transform="matrix(0.860148 0.510045 -3.80727e-08 1 0.799805 18.7939)" fill="url(#paint1_linear_354_67073)"/>
<rect width="8.63069" height="8.80408" transform="matrix(0.860148 -0.510045 1.85524e-08 1 8.25684 23.1958)" fill="url(#paint2_linear_354_67073)"/>
<path d="M23.7158 14.3916L31.1394 18.7936L23.7158 23.1956L16.2922 18.7936L23.7158 14.3916Z" fill="url(#paint3_linear_354_67073)"/>
<rect width="8.63063" height="8.80402" transform="matrix(0.860148 0.510045 -2.12994e-08 1 16.207 18.7939)" fill="url(#paint4_linear_354_67073)"/>
<rect width="8.63063" height="8.80402" transform="matrix(0.860148 -0.510045 7.8443e-09 1 23.6641 23.1958)" fill="url(#paint5_linear_354_67073)"/>
<g filter="url(#filter0_b_354_67073)">
<rect width="6.02551" height="6.02551" transform="matrix(0.863919 0.503631 -0.869095 0.494645 15.8838 9.74512)" fill="url(#paint6_linear_354_67073)"/>
<rect width="6.02551" height="6.0152" transform="matrix(0.863919 0.503631 -0.00518511 0.999987 15.9385 3.73047)" fill="url(#paint7_linear_354_67073)"/>
<rect width="6.02551" height="6.0152" transform="matrix(0.869095 -0.494645 -0.00518506 0.999987 10.6777 6.71045)" fill="url(#paint8_linear_354_67073)"/>
</g>
<g filter="url(#filter1_b_354_67073)">
<rect width="9.71857" height="9.71857" transform="matrix(0.863919 0.503631 -0.869095 0.494645 16.0225 0.0439453)" fill="url(#paint9_linear_354_67073)" fill-opacity="0.6"/>
<rect width="9.71857" height="9.70193" transform="matrix(0.863919 0.503631 -0.00518511 0.999987 7.47852 4.85107)" fill="url(#paint10_linear_354_67073)" fill-opacity="0.6"/>
<rect width="9.71857" height="9.70193" transform="matrix(0.869095 -0.494645 -0.00518506 0.999987 15.9131 9.74561)" fill="url(#paint11_linear_354_67073)" fill-opacity="0.6"/>
</g>
</g>
<defs>
<filter id="filter0_b_354_67073" x="-69.3535" y="-76.27" width="170.497" height="172.03" filterUnits="userSpaceOnUse" color-interpolation-filters="sRGB">
<feFlood flood-opacity="0" result="BackgroundImageFix"/>
<feGaussianBlur in="BackgroundImageFix" stdDeviation="40"/>
<feComposite in2="SourceAlpha" operator="in" result="effect1_backgroundBlur_354_67073"/>
<feBlend mode="normal" in="SourceGraphic" in2="effect1_backgroundBlur_354_67073" result="shape"/>
</filter>
<filter id="filter1_b_354_67073" x="4.42773" y="-2.95605" width="22.9912" height="25.4033" filterUnits="userSpaceOnUse" color-interpolation-filters="sRGB">
<feFlood flood-opacity="0" result="BackgroundImageFix"/>
<feGaussianBlur in="BackgroundImageFix" stdDeviation="1.5"/>
<feComposite in2="SourceAlpha" operator="in" result="effect1_backgroundBlur_354_67073"/>
<feBlend mode="normal" in="SourceGraphic" in2="effect1_backgroundBlur_354_67073" result="shape"/>
</filter>
<linearGradient id="paint0_linear_354_67073" x1="5.01099" y1="21.0557" x2="8.37405" y2="14.22" gradientUnits="userSpaceOnUse">
<stop stop-color="#F8FAFB"/>
<stop offset="1" stop-color="#E0E4E8"/>
</linearGradient>
<linearGradient id="paint1_linear_354_67073" x1="7.78655" y1="7.68422" x2="-2.9759" y2="14.3452" gradientUnits="userSpaceOnUse">
<stop stop-color="#F8FAFB"/>
<stop offset="1" stop-color="#E0E4E8"/>
</linearGradient>
<linearGradient id="paint2_linear_354_67073" x1="8.99268" y1="8.44793" x2="1.49778" y2="9.66726" gradientUnits="userSpaceOnUse">
<stop stop-color="#F8FAFB"/>
<stop offset="1" stop-color="#E0E4E8"/>
</linearGradient>
<linearGradient id="paint3_linear_354_67073" x1="16.5509" y1="19.0286" x2="23.3434" y2="14.0868" gradientUnits="userSpaceOnUse">
<stop stop-color="#C4FFED"/>
<stop offset="1" stop-color="#1BD9A0"/>
</linearGradient>
<linearGradient id="paint4_linear_354_67073" x1="7.7865" y1="7.68417" x2="-1.65162" y2="9.90927" gradientUnits="userSpaceOnUse">
<stop stop-color="#27E5AC"/>
<stop offset="1" stop-color="#12B685"/>
</linearGradient>
<linearGradient id="paint5_linear_354_67073" x1="8.99262" y1="8.44787" x2="1.49777" y2="9.6672" gradientUnits="userSpaceOnUse">
<stop stop-color="#1BD9A0"/>
<stop offset="1" stop-color="#0A8560"/>
</linearGradient>
<linearGradient id="paint6_linear_354_67073" x1="3.01276" y1="0" x2="3.01276" y2="6.02551" gradientUnits="userSpaceOnUse">
<stop stop-color="#1DDEA4"/>
<stop offset="1" stop-color="#039D6F"/>
</linearGradient>
<linearGradient id="paint7_linear_354_67073" x1="3.01276" y1="0" x2="3.01276" y2="6.0152" gradientUnits="userSpaceOnUse">
<stop stop-color="#1DDEA4"/>
<stop offset="1" stop-color="#039D6F"/>
</linearGradient>
<linearGradient id="paint8_linear_354_67073" x1="3.01276" y1="0" x2="3.01276" y2="6.0152" gradientUnits="userSpaceOnUse">
<stop stop-color="#1DDEA4"/>
<stop offset="1" stop-color="#039D6F"/>
</linearGradient>
<linearGradient id="paint9_linear_354_67073" x1="-0.0758704" y1="0.11336" x2="8.94476" y2="0.059453" gradientUnits="userSpaceOnUse">
<stop stop-color="#E0E4E8" stop-opacity="0"/>
<stop offset="1" stop-color="#E0E4E8"/>
</linearGradient>
<linearGradient id="paint10_linear_354_67073" x1="-0.0758704" y1="0.113166" x2="8.94476" y2="0.0591666" gradientUnits="userSpaceOnUse">
<stop stop-color="#E0E4E8" stop-opacity="0"/>
<stop offset="1" stop-color="#E0E4E8"/>
</linearGradient>
<linearGradient id="paint11_linear_354_67073" x1="-0.0758704" y1="0.113166" x2="8.94476" y2="0.0591666" gradientUnits="userSpaceOnUse">
<stop stop-color="#E0E4E8" stop-opacity="0"/>
<stop offset="1" stop-color="#E0E4E8"/>
</linearGradient>
<clipPath id="clip0_354_67073">
<rect width="32" height="32" fill="white"/>
</clipPath>
</defs>
</svg>
