<svg width="32" height="32" viewBox="0 0 32 32" fill="none" xmlns="http://www.w3.org/2000/svg">
<path d="M30.5254 20.5578L17.4004 13.2661V18.3625L30.4281 25.4189L30.5254 20.5578Z" fill="url(#paint0_linear_354_67129)"/>
<path d="M17.4003 18.3218L10.5947 22.2279L23.428 29.4051L30.5252 25.3218L17.4003 18.3218Z" fill="#1DDEA4"/>
<path d="M17.4998 13.3633L10.5947 16.9987V22.1923L17.4998 18.2244V13.3633Z" fill="#1DDEA4"/>
<g filter="url(#filter0_b_354_67129)">
<path d="M23.6207 24.5035L10.4004 16.978V22.2688L23.6207 29.5998V24.5035Z" fill="url(#paint1_linear_354_67129)"/>
<path d="M17.4976 13.2666L10.4004 16.9783L23.6207 24.5037L30.5824 20.5886L17.4976 13.2666Z" fill="url(#paint2_linear_354_67129)"/>
<path d="M30.5252 20.5767L23.6201 24.5038V29.6001L30.5252 25.4661V20.5767Z" fill="url(#paint3_linear_354_67129)"/>
</g>
<path d="M12.7344 22.2671C12.7344 22.1778 12.7088 22.0808 12.6659 21.9897L12.1865 22.2664C12.2437 22.3493 12.315 22.4199 12.392 22.4642C12.4295 22.4869 12.2755 22.5612 12.3188 22.5679L12.3489 22.6353L12.6319 22.4895C12.695 22.4548 12.7344 22.3776 12.7344 22.2671Z" fill="#FFA674"/>
<path d="M12.3915 21.6741C12.2962 21.6191 12.21 21.6143 12.148 21.6513L11.9121 21.7929L11.9422 21.8718C11.9223 21.9104 12.0491 21.8132 12.0491 21.8718C12.0491 22.0012 12.1027 22.1467 12.186 22.2668L12.6654 21.9899C12.6026 21.858 12.5033 21.7387 12.3915 21.6741Z" fill="#FFA674"/>
<path d="M12.4465 22.4178C12.4465 22.6361 12.2932 22.7246 12.1041 22.6156C11.915 22.5066 11.7617 22.2407 11.7617 22.0223C11.7617 21.804 11.915 21.7155 12.1041 21.8245C12.2932 21.9335 12.4465 22.1994 12.4465 22.4178Z" fill="#FFE5AE"/>
<path d="M12.3103 22.3429C12.338 22.5008 12.2599 22.5801 12.1359 22.5206C12.0119 22.4612 11.8888 22.2853 11.8611 22.1276C11.8334 21.97 11.9115 21.8904 12.0355 21.9498C12.1595 22.0092 12.2825 22.1852 12.3103 22.3429Z" fill="#FFA674"/>
<path d="M12.1664 22.4899C12.0414 22.4296 11.9175 22.2518 11.8894 22.0925C11.8776 22.0254 11.8848 21.9722 11.9062 21.9378C11.8633 21.9654 11.8441 22.031 11.8602 22.1227C11.8883 22.2823 12.0123 22.4599 12.1372 22.52C12.2095 22.5549 12.2663 22.5426 12.2959 22.4952C12.2642 22.5156 12.2195 22.5154 12.1664 22.4899Z" fill="#FFA674"/>
<path d="M13.8994 22.8501C13.8994 22.7608 13.8738 22.6638 13.8309 22.5728L13.3516 22.8494C13.4088 22.9323 13.4801 23.003 13.557 23.0472C13.5946 23.0699 13.4405 23.1442 13.4838 23.1509L13.5139 23.2183L13.797 23.0725C13.8601 23.0378 13.8994 22.9606 13.8994 22.8501Z" fill="#FFA674"/>
<path d="M13.5575 22.2571C13.4622 22.2021 13.376 22.1973 13.314 22.2343L13.0781 22.3759L13.1082 22.4548C13.0884 22.4934 13.2151 22.3962 13.2151 22.4548C13.2151 22.5842 13.2687 22.7297 13.352 22.8498L13.8314 22.5729C13.7686 22.441 13.6693 22.3217 13.5575 22.2571Z" fill="#FFA674"/>
<path d="M13.6125 23.0013C13.6125 23.2196 13.4592 23.308 13.2701 23.1991C13.0811 23.0901 12.9277 22.8242 12.9277 22.6058C12.9277 22.3875 13.0811 22.299 13.2701 22.408C13.4592 22.517 13.6125 22.7829 13.6125 23.0013Z" fill="#FFE5AE"/>
<path d="M13.4763 22.9259C13.504 23.0838 13.4259 23.1631 13.3019 23.1036C13.1779 23.0442 13.0548 22.8683 13.0271 22.7106C12.9994 22.553 13.0775 22.4734 13.2015 22.5328C13.3255 22.5922 13.4486 22.7682 13.4763 22.9259Z" fill="#FFA674"/>
<path d="M13.3324 23.0729C13.2075 23.0126 13.0835 22.8348 13.0555 22.6755C13.0437 22.6084 13.0508 22.5553 13.0723 22.5208C13.0293 22.5484 13.0101 22.614 13.0263 22.7057C13.0543 22.8653 13.1783 23.0429 13.3032 23.103C13.3756 23.1379 13.4324 23.1256 13.4619 23.0782C13.4302 23.0986 13.3855 23.0984 13.3324 23.0729Z" fill="#FFA674"/>
<path d="M30.5244 14.4914L17.3994 7.19971V12.296L30.4272 19.3525L30.5244 14.4914Z" fill="url(#paint4_linear_354_67129)"/>
<path d="M17.4003 12.2554L10.5947 16.1615L23.428 23.3387L30.5252 19.2554L17.4003 12.2554Z" fill="#1DDEA4"/>
<path d="M17.4998 7.29688L10.5947 10.9323V16.1258L17.4998 12.158V7.29688Z" fill="#1DDEA4"/>
<g filter="url(#filter1_b_354_67129)">
<path d="M23.6207 18.4366L10.4004 10.9111V16.2019L23.6207 23.5329V18.4366Z" fill="url(#paint5_linear_354_67129)"/>
<path d="M17.4976 7.19971L10.4004 10.9114L23.6207 18.4368L30.5824 14.5217L17.4976 7.19971Z" fill="url(#paint6_linear_354_67129)"/>
<path d="M30.4006 14.3999L23.6006 18.3999V23.5999L30.4006 19.1999V14.3999Z" fill="url(#paint7_linear_354_67129)"/>
</g>
<path d="M12.7334 16.2007C12.7334 16.1114 12.7078 16.0144 12.6649 15.9233L12.1855 16.2C12.2428 16.2829 12.3141 16.3535 12.391 16.3978C12.4285 16.4205 12.2745 16.4948 12.3178 16.5015L12.3479 16.5688L12.631 16.4231C12.694 16.3884 12.7334 16.3112 12.7334 16.2007Z" fill="#FFA674"/>
<path d="M12.3915 15.6077C12.2962 15.5527 12.21 15.5479 12.148 15.5849L11.9121 15.7265L11.9422 15.8054C11.9223 15.844 12.0491 15.7468 12.0491 15.8054C12.0491 15.9348 12.1027 16.0803 12.186 16.2004L12.6654 15.9235C12.6026 15.7916 12.5033 15.6723 12.3915 15.6077Z" fill="#FFA674"/>
<path d="M12.4465 16.3514C12.4465 16.5697 12.2932 16.6581 12.1041 16.5492C11.915 16.4402 11.7617 16.1743 11.7617 15.9559C11.7617 15.7376 11.915 15.6491 12.1041 15.7581C12.2932 15.8671 12.4465 16.133 12.4465 16.3514Z" fill="#FFE5AE"/>
<path d="M12.3103 16.2765C12.338 16.4344 12.2599 16.5136 12.1359 16.4542C12.0119 16.3948 11.8888 16.2189 11.8611 16.0612C11.8334 15.9036 11.9115 15.824 12.0355 15.8834C12.1595 15.9428 12.2825 16.1188 12.3103 16.2765Z" fill="#FFA674"/>
<path d="M12.1664 16.4234C12.0414 16.3631 11.9175 16.1854 11.8894 16.0261C11.8776 15.959 11.8848 15.9058 11.9062 15.8714C11.8633 15.899 11.8441 15.9646 11.8602 16.0562C11.8883 16.2159 12.0123 16.3935 12.1372 16.4536C12.2095 16.4885 12.2663 16.4762 12.2959 16.4288C12.2642 16.4492 12.2195 16.449 12.1664 16.4234Z" fill="#FFA674"/>
<path d="M13.8994 16.7837C13.8994 16.6944 13.8738 16.5974 13.8309 16.5063L13.3516 16.783C13.4088 16.8659 13.4801 16.9365 13.557 16.9808C13.5946 17.0035 13.4405 17.0778 13.4838 17.0845L13.5139 17.1519L13.797 17.0061C13.8601 16.9714 13.8994 16.8942 13.8994 16.7837Z" fill="#FFA674"/>
<path d="M13.5575 16.1907C13.4622 16.1357 13.376 16.1309 13.314 16.1679L13.0781 16.3095L13.1082 16.3884C13.0884 16.427 13.2151 16.3298 13.2151 16.3884C13.2151 16.5178 13.2687 16.6633 13.352 16.7834L13.8314 16.5065C13.7686 16.3746 13.6693 16.2553 13.5575 16.1907Z" fill="#FFA674"/>
<path d="M13.6125 16.9349C13.6125 17.1532 13.4592 17.2416 13.2701 17.1327C13.0811 17.0237 12.9277 16.7578 12.9277 16.5394C12.9277 16.3211 13.0811 16.2326 13.2701 16.3416C13.4592 16.4506 13.6125 16.7165 13.6125 16.9349Z" fill="#FFE5AE"/>
<path d="M13.4763 16.8595C13.504 17.0174 13.4259 17.0967 13.3019 17.0372C13.1779 16.9778 13.0548 16.8019 13.0271 16.6442C12.9994 16.4866 13.0775 16.407 13.2015 16.4664C13.3255 16.5258 13.4486 16.7018 13.4763 16.8595Z" fill="#FFA674"/>
<path d="M13.3324 17.0065C13.2075 16.9462 13.0835 16.7684 13.0555 16.6091C13.0437 16.542 13.0508 16.4889 13.0723 16.4544C13.0293 16.482 13.0101 16.5476 13.0263 16.6393C13.0543 16.7989 13.1783 16.9765 13.3032 17.0366C13.3756 17.0715 13.4324 17.0592 13.4619 17.0118C13.4302 17.0322 13.3855 17.032 13.3324 17.0065Z" fill="#FFA674"/>
<g filter="url(#filter2_b_354_67129)">
<path d="M23.6207 12.0367L10.4004 4.51123V9.80201L23.6207 17.133V12.0367Z" fill="url(#paint8_linear_354_67129)"/>
<path d="M17.4976 0.799805L10.4004 4.51147L23.6207 12.0369L30.5824 8.12185L17.4976 0.799805Z" fill="url(#paint9_linear_354_67129)"/>
<path d="M30.5252 8.10986L23.6201 12.037V17.1333L30.5252 12.9993V8.10986Z" fill="url(#paint10_linear_354_67129)"/>
</g>
<path d="M20.2251 11.1979L13.3892 7.21027C12.7734 6.85104 12 7.29524 12 8.00818C12 8.99382 12.5235 9.90529 13.3749 10.4019L20.2108 14.3895C20.8266 14.7488 21.6 14.3046 21.6 13.5916C21.6 12.606 21.0765 11.6945 20.2251 11.1979Z" stroke="url(#paint11_linear_354_67129)" stroke-width="0.2"/>
<path d="M11.5939 19.9642C9.40277 18.7025 7.43078 18.593 5.99195 19.4256C5.75276 19.5662 5.02057 19.9734 4.39062 20.3641L7.20984 23.2125C8.16662 22.1407 9.76613 22.0001 11.592 23.0519C13.418 24.1036 15.0175 26.0957 15.9742 28.274L17.8659 27.1656C16.4088 24.1492 14.1429 21.4359 11.5939 19.9642Z" fill="url(#paint12_linear_354_67129)"/>
<path d="M11.5939 13.7885C7.93662 11.6759 4.62623 11.5025 2.22515 12.9121C1.99143 13.0454 0.729725 13.7502 0.508789 13.9163L1.68468 13.595L3.42478 16.6224C5.37121 15.021 8.30728 14.979 11.5939 16.8762C14.8806 18.7733 17.8148 22.2042 19.7631 26.0587L21.6365 24.9631C19.1989 20.2687 15.6055 16.1056 11.5939 13.7885Z" fill="url(#paint13_linear_354_67129)"/>
<path d="M11.5943 26.1397C10.842 25.7051 10.1628 25.6795 9.67889 25.9881L8.18164 26.8646L9.52186 27.2298L11.5943 30.8414L14.0301 29.4135C13.6229 28.0825 12.6844 26.7696 11.5943 26.1397Z" fill="url(#paint14_linear_354_67129)"/>
<path d="M10.0414 20.8737C7.48515 19.4002 5.22649 19.497 3.76758 20.8299L5.65923 24.122C6.61601 23.0484 8.21551 22.9096 10.0414 23.9614C11.8673 25.0131 13.4687 27.0052 14.4236 29.1817L16.3153 28.0679C14.8582 25.0569 12.5977 22.3436 10.0414 20.8737Z" fill="url(#paint15_linear_354_67129)"/>
<path d="M10.0425 14.5171C6.02553 12.2 2.43577 12.2146 0 14.0898L1.87339 17.3509C3.81982 15.7478 6.7559 15.7076 10.0425 17.6029C13.3292 19.4982 16.2653 22.9328 18.2117 26.7909L20.0851 25.6954C17.6493 20.9973 14.0596 16.8324 10.0425 14.5171Z" fill="url(#paint16_linear_354_67129)"/>
<path d="M10.0421 27.0488C8.94654 26.4243 8.0135 26.6489 7.60449 27.5089L10.0421 31.7505L12.4797 30.3226C12.0707 28.9915 11.1376 27.6787 10.0421 27.0488Z" fill="url(#paint17_linear_354_67129)"/>
<defs>
<filter id="filter0_b_354_67129" x="-9.59961" y="-6.7334" width="60.1816" height="56.3335" filterUnits="userSpaceOnUse" color-interpolation-filters="sRGB">
<feFlood flood-opacity="0" result="BackgroundImageFix"/>
<feGaussianBlur in="BackgroundImageFix" stdDeviation="10"/>
<feComposite in2="SourceAlpha" operator="in" result="effect1_backgroundBlur_354_67129"/>
<feBlend mode="normal" in="SourceGraphic" in2="effect1_backgroundBlur_354_67129" result="shape"/>
</filter>
<filter id="filter1_b_354_67129" x="-9.59961" y="-12.8003" width="60.1816" height="56.4004" filterUnits="userSpaceOnUse" color-interpolation-filters="sRGB">
<feFlood flood-opacity="0" result="BackgroundImageFix"/>
<feGaussianBlur in="BackgroundImageFix" stdDeviation="10"/>
<feComposite in2="SourceAlpha" operator="in" result="effect1_backgroundBlur_354_67129"/>
<feBlend mode="normal" in="SourceGraphic" in2="effect1_backgroundBlur_354_67129" result="shape"/>
</filter>
<filter id="filter2_b_354_67129" x="-9.59961" y="-19.2002" width="60.1816" height="56.3335" filterUnits="userSpaceOnUse" color-interpolation-filters="sRGB">
<feFlood flood-opacity="0" result="BackgroundImageFix"/>
<feGaussianBlur in="BackgroundImageFix" stdDeviation="10"/>
<feComposite in2="SourceAlpha" operator="in" result="effect1_backgroundBlur_354_67129"/>
<feBlend mode="normal" in="SourceGraphic" in2="effect1_backgroundBlur_354_67129" result="shape"/>
</filter>
<linearGradient id="paint0_linear_354_67129" x1="30.5254" y1="19.3425" x2="17.4004" y2="19.3425" gradientUnits="userSpaceOnUse">
<stop stop-color="#00DA98"/>
<stop offset="1" stop-color="#00FFB2"/>
</linearGradient>
<linearGradient id="paint1_linear_354_67129" x1="23.2004" y1="27.1999" x2="15.311" y2="30.9897" gradientUnits="userSpaceOnUse">
<stop stop-color="#F8FAFB"/>
<stop offset="1" stop-color="#E0E4E8"/>
</linearGradient>
<linearGradient id="paint2_linear_354_67129" x1="20.4004" y1="22" x2="26.8877" y2="19.4196" gradientUnits="userSpaceOnUse">
<stop stop-color="#F8FAFB"/>
<stop offset="1" stop-color="#E0E4E8"/>
</linearGradient>
<linearGradient id="paint3_linear_354_67129" x1="29.9998" y1="25.6001" x2="27.1495" y2="27.446" gradientUnits="userSpaceOnUse">
<stop stop-color="#F8FAFB"/>
<stop offset="1" stop-color="#E0E4E8"/>
</linearGradient>
<linearGradient id="paint4_linear_354_67129" x1="30.5244" y1="13.2761" x2="17.3994" y2="13.2761" gradientUnits="userSpaceOnUse">
<stop stop-color="#00DA98"/>
<stop offset="1" stop-color="#00FFB2"/>
</linearGradient>
<linearGradient id="paint5_linear_354_67129" x1="22.3277" y1="21.9274" x2="7.97746" y2="25.5422" gradientUnits="userSpaceOnUse">
<stop stop-color="#27E5AC"/>
<stop offset="1" stop-color="#12B685"/>
</linearGradient>
<linearGradient id="paint6_linear_354_67129" x1="11.2907" y1="18.541" x2="13.6069" y2="8.06827" gradientUnits="userSpaceOnUse">
<stop stop-color="#C4FFED"/>
<stop offset="1" stop-color="#1BD9A0"/>
</linearGradient>
<linearGradient id="paint7_linear_354_67129" x1="31.1952" y1="23.0583" x2="25.1379" y2="23.8276" gradientUnits="userSpaceOnUse">
<stop stop-color="#1BD9A0"/>
<stop offset="1" stop-color="#0A8560"/>
</linearGradient>
<linearGradient id="paint8_linear_354_67129" x1="22.3277" y1="15.5275" x2="6.46418" y2="26.0178" gradientUnits="userSpaceOnUse">
<stop stop-color="#F8FAFB"/>
<stop offset="1" stop-color="#E0E4E8"/>
</linearGradient>
<linearGradient id="paint9_linear_354_67129" x1="21.1944" y1="11.8013" x2="20.5821" y2="-0.012265" gradientUnits="userSpaceOnUse">
<stop stop-color="#F8FAFB"/>
<stop offset="1" stop-color="#E0E4E8"/>
</linearGradient>
<linearGradient id="paint10_linear_354_67129" x1="30.8148" y1="16.7683" x2="24.7574" y2="17.5375" gradientUnits="userSpaceOnUse">
<stop stop-color="#F8FAFB"/>
<stop offset="1" stop-color="#E0E4E8"/>
</linearGradient>
<linearGradient id="paint11_linear_354_67129" x1="16.8" y1="6.3999" x2="16.8" y2="15.1999" gradientUnits="userSpaceOnUse">
<stop stop-color="#1DDEA4"/>
<stop offset="1" stop-color="#039D6F"/>
</linearGradient>
<linearGradient id="paint12_linear_354_67129" x1="9.09282" y1="19.3763" x2="18.8376" y2="21.1773" gradientUnits="userSpaceOnUse">
<stop stop-color="#7FFFD8"/>
<stop offset="1" stop-color="#14BB88"/>
</linearGradient>
<linearGradient id="paint13_linear_354_67129" x1="7.88129" y1="12.7277" x2="23.1122" y2="15.6734" gradientUnits="userSpaceOnUse">
<stop stop-color="#7FFFD8"/>
<stop offset="1" stop-color="#14BB88"/>
</linearGradient>
<linearGradient id="paint14_linear_354_67129" x1="10.2224" y1="26.0432" x2="14.5016" y2="26.6796" gradientUnits="userSpaceOnUse">
<stop stop-color="#7FFFD8"/>
<stop offset="1" stop-color="#14BB88"/>
</linearGradient>
<linearGradient id="paint15_linear_354_67129" x1="4.14634" y1="21.2966" x2="13.1066" y2="18.6731" gradientUnits="userSpaceOnUse">
<stop stop-color="#27E5AC"/>
<stop offset="1" stop-color="#12B685"/>
</linearGradient>
<linearGradient id="paint16_linear_354_67129" x1="0.606283" y1="14.9718" x2="14.7916" y2="10.5365" gradientUnits="userSpaceOnUse">
<stop stop-color="#27E5AC"/>
<stop offset="1" stop-color="#12B685"/>
</linearGradient>
<linearGradient id="paint17_linear_354_67129" x1="7.75165" y1="27.5" x2="11.3703" y2="26.7363" gradientUnits="userSpaceOnUse">
<stop stop-color="#27E5AC"/>
<stop offset="1" stop-color="#12B685"/>
</linearGradient>
</defs>
</svg>
