<svg width="320" height="320" viewBox="0 0 320 320" fill="none" xmlns="http://www.w3.org/2000/svg">
<g clip-path="url(#clip0_397_82507)">
<path d="M199.644 187.882L71.0884 220.987C66.7277 222.104 62.1016 221.446 58.2252 219.158C54.3487 216.869 51.5385 213.136 50.4109 208.778L11.5323 57.8003C10.4146 53.4396 11.0723 48.8136 13.3611 44.9371C15.6499 41.0607 19.383 38.2505 23.7412 37.1229L143.341 6.32471L173.953 20.0286L211.853 167.205C212.971 171.565 212.313 176.191 210.024 180.068C207.735 183.944 204.002 186.755 199.644 187.882V187.882Z" fill="#4C5A68"/>
<path d="M24.959 41.8565C21.8554 42.6594 19.1971 44.6607 17.5672 47.4211C15.9372 50.1816 15.4689 53.4759 16.2648 56.5813L55.1434 207.559C55.9464 210.662 57.9476 213.321 60.7081 214.95C63.4686 216.58 66.7629 217.049 69.8683 216.253L198.424 183.148C201.528 182.345 204.186 180.344 205.816 177.584C207.446 174.823 207.914 171.529 207.118 168.424L169.806 23.528L142.903 11.4846L24.959 41.8565Z" fill="#2B3244"/>
<path d="M173.626 20.8076L153.73 25.9309C152.277 26.3049 150.736 26.0866 149.444 25.3241C148.153 24.5615 147.217 23.3172 146.843 21.8647L143.059 7.17009C143.042 7.10576 143.044 7.03806 143.064 6.97476C143.085 6.91146 143.122 6.85511 143.173 6.81219C143.224 6.76927 143.285 6.74151 143.351 6.73209C143.417 6.72267 143.484 6.73197 143.545 6.75893L173.681 20.1423C173.748 20.172 173.804 20.222 173.841 20.2851C173.879 20.3482 173.896 20.4214 173.89 20.4946C173.883 20.5677 173.855 20.6371 173.807 20.6932C173.76 20.7493 173.697 20.7893 173.626 20.8076V20.8076Z" fill="#4C5A68"/>
<path d="M163.159 149.739L104.629 164.811C104.27 164.903 103.895 164.924 103.528 164.872C103.16 164.82 102.806 164.696 102.487 164.507C102.167 164.319 101.887 164.069 101.664 163.772C101.441 163.475 101.279 163.137 101.186 162.778C101.093 162.418 101.073 162.044 101.125 161.676C101.177 161.309 101.301 160.955 101.489 160.635C101.678 160.315 101.928 160.036 102.225 159.813C102.522 159.59 102.86 159.427 103.219 159.334L161.749 144.262C162.108 144.17 162.483 144.149 162.85 144.201C163.218 144.253 163.572 144.377 163.891 144.566C164.211 144.755 164.491 145.005 164.714 145.301C164.937 145.598 165.099 145.936 165.192 146.296C165.285 146.655 165.306 147.029 165.253 147.397C165.201 147.765 165.077 148.119 164.889 148.438C164.7 148.758 164.45 149.037 164.153 149.261C163.856 149.484 163.519 149.646 163.159 149.739Z" fill="#65809A"/>
<path d="M176.834 156.072L107.009 174.052C106.283 174.239 105.512 174.13 104.867 173.749C104.221 173.368 103.753 172.745 103.566 172.019C103.379 171.293 103.488 170.522 103.869 169.877C104.251 169.231 104.873 168.763 105.599 168.576L175.424 150.595C176.15 150.409 176.92 150.519 177.565 150.9C178.21 151.281 178.678 151.903 178.865 152.629C179.052 153.355 178.943 154.125 178.562 154.771C178.181 155.416 177.56 155.884 176.834 156.072V156.072Z" fill="#65809A"/>
<path d="M80.7409 182.964C86.2604 182.964 90.7348 178.489 90.7348 172.97C90.7348 167.45 86.2604 162.976 80.7409 162.976C75.2215 162.976 70.7471 167.45 70.7471 172.97C70.7471 178.489 75.2215 182.964 80.7409 182.964Z" fill="#65809A"/>
<path d="M156.935 123.584L79.2018 143.594C76.9553 144.17 74.5722 143.831 72.5754 142.651C70.5785 141.472 69.131 139.549 68.5503 137.304L52.2604 74.0213C51.6848 71.7748 52.0238 69.3917 53.2031 67.3949C54.3823 65.398 56.3055 63.9505 58.5507 63.3699L136.284 43.3602C138.53 42.7846 140.913 43.1237 142.91 44.3029C144.907 45.4822 146.355 47.4054 146.935 49.6506L163.225 112.933C163.801 115.179 163.462 117.563 162.283 119.559C161.103 121.556 159.18 123.004 156.935 123.584Z" fill="#2B3244"/>
<path d="M156.935 123.584L79.2018 143.594C76.9553 144.17 74.5722 143.831 72.5754 142.651C70.5785 141.472 69.131 139.549 68.5503 137.304L52.2604 74.0213C51.6848 71.7748 52.0238 69.3917 53.2031 67.3949C54.3823 65.398 56.3055 63.9505 58.5507 63.3699L136.284 43.3602C138.53 42.7846 140.913 43.1237 142.91 44.3029C144.907 45.4822 146.355 47.4054 146.935 49.6506L163.225 112.933C163.801 115.179 163.462 117.563 162.283 119.559C161.103 121.556 159.18 123.004 156.935 123.584ZM58.8073 64.3664C56.8262 64.8788 55.1293 66.156 54.0888 67.9179C53.0482 69.6798 52.7491 71.7825 53.257 73.7647L69.5469 137.047C70.0593 139.028 71.3365 140.725 73.0984 141.766C74.8604 142.806 76.9631 143.105 78.9453 142.597L156.678 122.588C158.66 122.075 160.356 120.798 161.397 119.036C162.438 117.274 162.737 115.172 162.229 113.19L145.939 49.9071C145.426 47.926 144.149 46.2291 142.387 45.1886C140.625 44.1481 138.523 43.8489 136.54 44.3568L58.8073 64.3664Z" fill="#65809A"/>
<path d="M132.341 64.6383L93.1098 74.7369C92.7668 74.8326 92.4003 74.7946 92.0843 74.6305C91.7683 74.4663 91.5264 74.1883 91.4075 73.8526C91.3521 73.6773 91.3331 73.4925 91.3515 73.3096C91.37 73.1266 91.4255 72.9494 91.5147 72.7886C91.6039 72.6278 91.725 72.4869 91.8704 72.3744C92.0159 72.262 92.1828 72.1803 92.3608 72.1345L132.295 61.8547C133.909 62.6721 133.484 64.3439 132.34 64.6384L132.341 64.6383Z" fill="#4C5A68"/>
<path d="M134.112 71.5196L94.8813 81.6182C94.5383 81.714 94.1717 81.6759 93.8557 81.5118C93.5397 81.3476 93.2978 81.0697 93.179 80.734C93.1236 80.5586 93.1046 80.3739 93.123 80.1909C93.1415 80.008 93.197 79.8307 93.2862 79.6699C93.3754 79.5092 93.4964 79.3682 93.6419 79.2558C93.7874 79.1433 93.9542 79.0617 94.1323 79.0158L134.067 68.7361C135.68 69.5535 135.256 71.2253 134.112 71.5197L134.112 71.5196Z" fill="#4C5A68"/>
<path d="M87.4091 87.7194L75.4362 90.8014C75.0452 90.9016 74.6304 90.8427 74.2828 90.6374C73.9352 90.4321 73.6833 90.0973 73.5822 89.7065L69.9452 75.5776C69.845 75.1866 69.904 74.7718 70.1092 74.4242C70.3145 74.0766 70.6493 73.8246 71.0401 73.7236L83.013 70.6416C83.404 70.5415 83.8188 70.6006 84.1663 70.8058C84.5139 71.0111 84.7658 71.3458 84.867 71.7365L88.504 85.8654C88.6042 86.2565 88.5453 86.6713 88.34 87.0189C88.1347 87.3665 87.7999 87.6184 87.4091 87.7194V87.7194Z" fill="#65809A"/>
<path d="M137.625 85.6387L77.7514 101.051C77.4084 101.147 77.0419 101.109 76.7259 100.945C76.4099 100.78 76.168 100.502 76.0491 100.167C75.9937 99.9914 75.9747 99.8066 75.9931 99.6237C76.0116 99.4407 76.0671 99.2635 76.1563 99.1027C76.2455 98.9419 76.3666 98.801 76.512 98.6885C76.6575 98.5761 76.8244 98.4944 77.0024 98.4486L137.58 82.855C139.193 83.6724 138.769 85.3442 137.625 85.6387L137.625 85.6387Z" fill="#4C5A68"/>
<path d="M139.396 92.5219L79.5229 107.934C79.1799 108.03 78.8134 107.992 78.4974 107.828C78.1814 107.664 77.9395 107.386 77.8206 107.05C77.7652 106.875 77.7462 106.69 77.7646 106.507C77.7831 106.324 77.8386 106.147 77.9278 105.986C78.017 105.825 78.138 105.684 78.2835 105.572C78.429 105.459 78.5959 105.378 78.7739 105.332L139.352 89.7383C140.965 90.5557 140.54 92.2275 139.396 92.5219V92.5219Z" fill="#4C5A68"/>
<path d="M141.168 99.4009L81.2944 114.813C80.9514 114.909 80.5848 114.871 80.2688 114.707C79.9528 114.543 79.7109 114.265 79.592 113.929C79.5367 113.754 79.5177 113.569 79.5361 113.386C79.5546 113.203 79.6101 113.026 79.6993 112.865C79.7885 112.704 79.9095 112.563 80.055 112.451C80.2005 112.338 80.3673 112.257 80.5454 112.211L141.123 96.6172C142.736 97.4346 142.312 99.1064 141.168 99.4009V99.4009Z" fill="#4C5A68"/>
<path d="M142.939 106.284L83.0659 121.696C82.7229 121.792 82.3563 121.754 82.0403 121.59C81.7243 121.425 81.4824 121.147 81.3635 120.812C81.3082 120.636 81.2892 120.452 81.3076 120.269C81.326 120.086 81.3816 119.908 81.4708 119.748C81.56 119.587 81.681 119.446 81.8265 119.334C81.972 119.221 82.1388 119.139 82.3169 119.094L142.895 103.5C144.508 104.317 144.083 105.989 142.939 106.284L142.939 106.284Z" fill="#4C5A68"/>
<path d="M144.71 113.163L84.8363 128.575C84.4934 128.671 84.1268 128.633 83.8108 128.469C83.4948 128.305 83.2529 128.027 83.134 127.691C83.0787 127.516 83.0597 127.331 83.0781 127.148C83.0966 126.965 83.1521 126.788 83.2413 126.627C83.3305 126.466 83.4515 126.325 83.597 126.213C83.7425 126.1 83.9093 126.019 84.0874 125.973L144.665 110.379C146.278 111.197 145.854 112.869 144.71 113.163V113.163Z" fill="#4C5A68"/>
<path d="M81.478 176.473C81.2604 176.53 81.0303 176.514 80.8225 176.428L80.8096 176.423L78.0871 175.268C77.9607 175.215 77.8461 175.137 77.7499 175.039C77.6537 174.941 77.5777 174.826 77.5263 174.698C77.4748 174.571 77.449 174.435 77.4502 174.298C77.4515 174.161 77.4797 174.025 77.5334 173.899C77.5871 173.773 77.6652 173.658 77.7631 173.562C77.8611 173.466 77.977 173.39 78.1043 173.339C78.2316 173.288 78.3677 173.262 78.5049 173.264C78.6421 173.265 78.7777 173.293 78.9039 173.347L80.668 174.098L82.9798 168.659C83.0334 168.533 83.1113 168.419 83.2091 168.323C83.3069 168.227 83.4226 168.151 83.5497 168.1C83.6767 168.049 83.8127 168.023 83.9497 168.024C84.0867 168.026 84.2221 168.054 84.3482 168.108L84.3485 168.108L84.3346 168.143L84.3491 168.108C84.6036 168.216 84.8046 168.421 84.908 168.678C85.0114 168.934 85.0089 169.222 84.9008 169.476L82.1811 175.87C82.118 176.018 82.0218 176.149 81.9 176.253C81.7782 176.357 81.634 176.432 81.4786 176.472L81.478 176.473Z" fill="#2B3244"/>
<path d="M136.535 111.53C136.31 111.531 136.091 111.458 135.911 111.323L135.9 111.315L133.551 109.518C133.442 109.435 133.35 109.331 133.282 109.212C133.213 109.093 133.168 108.962 133.15 108.826C133.132 108.69 133.141 108.552 133.176 108.419C133.211 108.287 133.273 108.162 133.356 108.053C133.44 107.945 133.544 107.853 133.663 107.785C133.781 107.716 133.913 107.671 134.049 107.654C134.185 107.636 134.323 107.645 134.456 107.681C134.588 107.716 134.712 107.778 134.821 107.862L136.342 109.028L139.937 104.338C140.021 104.229 140.125 104.138 140.243 104.07C140.362 104.001 140.493 103.957 140.629 103.939C140.765 103.921 140.903 103.93 141.035 103.965C141.167 104.001 141.291 104.062 141.4 104.145L141.4 104.145L141.378 104.176L141.401 104.145C141.62 104.314 141.764 104.563 141.8 104.837C141.836 105.111 141.762 105.389 141.594 105.608L137.366 111.122C137.268 111.249 137.142 111.352 136.998 111.423C136.854 111.493 136.696 111.53 136.535 111.529L136.535 111.53Z" fill="#2B3244"/>
<path d="M235.646 252.837H102.897C98.3949 252.832 94.079 251.042 90.8958 247.858C87.7126 244.675 85.9221 240.359 85.917 235.858V79.9549C85.9221 75.4532 87.7126 71.1373 90.8958 67.9541C94.079 64.771 98.3949 62.9804 102.897 62.9753H226.398L252.626 83.8802V235.858C252.621 240.359 250.83 244.675 247.647 247.858C244.464 251.042 240.148 252.832 235.646 252.837V252.837Z" fill="#65809A"/>
<path d="M102.896 67.8633C99.6905 67.8669 96.617 69.142 94.3502 71.4088C92.0834 73.6756 90.8083 76.749 90.8047 79.9548V235.858C90.8083 239.063 92.0834 242.137 94.3502 244.404C96.617 246.67 99.6905 247.946 102.896 247.949H235.646C238.852 247.946 241.925 246.67 244.192 244.404C246.459 242.137 247.734 239.063 247.737 235.858V86.2349L224.688 67.8633H102.896Z" fill="#2B3244"/>
<path d="M209.826 113.196H149.387C148.637 113.196 147.918 112.898 147.388 112.367C146.857 111.837 146.56 111.118 146.56 110.368C146.56 109.618 146.857 108.899 147.388 108.369C147.918 107.838 148.637 107.541 149.387 107.541H209.826C210.576 107.541 211.295 107.838 211.826 108.369C212.356 108.899 212.654 109.618 212.654 110.368C212.654 111.118 212.356 111.837 211.826 112.367C211.295 112.898 210.576 113.196 209.826 113.196V113.196Z" fill="#4C5A68"/>
<path d="M221.49 122.739H149.387C148.638 122.738 147.92 122.439 147.39 121.909C146.861 121.379 146.563 120.661 146.563 119.911C146.563 119.162 146.861 118.443 147.39 117.913C147.92 117.383 148.638 117.085 149.387 117.084H221.49C221.862 117.083 222.23 117.156 222.573 117.298C222.917 117.44 223.229 117.648 223.492 117.911C223.755 118.173 223.963 118.485 224.106 118.828C224.248 119.172 224.321 119.54 224.321 119.911C224.321 120.283 224.248 120.651 224.106 120.994C223.963 121.338 223.755 121.649 223.492 121.912C223.229 122.175 222.917 122.383 222.573 122.525C222.23 122.667 221.862 122.739 221.49 122.739V122.739Z" fill="#65809A"/>
<path d="M209.827 150.306H149.39C148.64 150.306 147.921 150.604 147.391 151.134C146.86 151.664 146.562 152.383 146.562 153.133C146.562 153.883 146.86 154.602 147.391 155.132C147.921 155.662 148.64 155.96 149.39 155.96H209.827C210.577 155.96 211.296 155.662 211.826 155.132C212.356 154.602 212.654 153.883 212.654 153.133C212.654 152.383 212.356 151.664 211.826 151.134C211.296 150.604 210.577 150.306 209.827 150.306V150.306Z" fill="#4C5A68"/>
<path d="M221.491 159.85H149.39C148.64 159.85 147.921 160.148 147.391 160.678C146.86 161.208 146.562 161.928 146.562 162.677C146.562 163.427 146.86 164.146 147.391 164.677C147.921 165.207 148.64 165.505 149.39 165.505H221.491C222.241 165.505 222.96 165.207 223.491 164.677C224.021 164.146 224.319 163.427 224.319 162.677C224.319 161.928 224.021 161.208 223.491 160.678C222.96 160.148 222.241 159.85 221.491 159.85Z" fill="#65809A"/>
<path d="M209.826 198.729H149.387C148.637 198.729 147.918 198.431 147.388 197.901C146.857 197.37 146.56 196.651 146.56 195.901C146.56 195.151 146.857 194.432 147.388 193.902C147.918 193.372 148.637 193.074 149.387 193.074H209.826C210.576 193.074 211.295 193.372 211.826 193.902C212.356 194.432 212.654 195.151 212.654 195.901C212.654 196.651 212.356 197.37 211.826 197.901C211.295 198.431 210.576 198.729 209.826 198.729V198.729Z" fill="#4C5A68"/>
<path d="M221.49 208.272H149.387C148.638 208.271 147.92 207.973 147.39 207.443C146.861 206.912 146.563 206.194 146.563 205.444C146.563 204.695 146.861 203.977 147.39 203.446C147.92 202.916 148.638 202.618 149.387 202.617H221.49C221.862 202.616 222.23 202.689 222.573 202.831C222.917 202.973 223.229 203.181 223.492 203.444C223.755 203.706 223.963 204.018 224.106 204.362C224.248 204.705 224.321 205.073 224.321 205.444C224.321 205.816 224.248 206.184 224.106 206.527C223.963 206.871 223.755 207.183 223.492 207.445C223.229 207.708 222.917 207.916 222.573 208.058C222.23 208.2 221.862 208.273 221.49 208.272Z" fill="#65809A"/>
<path d="M135.24 157.905C135.241 159.218 134.983 160.518 134.481 161.731C133.979 162.943 133.243 164.045 132.315 164.974C131.387 165.902 130.286 166.639 129.073 167.141C127.861 167.644 126.561 167.902 125.248 167.903C125.162 167.904 125.076 167.901 124.991 167.892C123.026 167.842 121.119 167.213 119.51 166.085C117.9 164.956 116.66 163.378 115.943 161.548C115.225 159.717 115.064 157.716 115.479 155.795C115.893 153.873 116.865 152.117 118.273 150.745C119.681 149.373 121.462 148.447 123.394 148.083C125.325 147.718 127.321 147.931 129.133 148.695C130.944 149.46 132.489 150.741 133.575 152.379C134.662 154.017 135.241 155.94 135.24 157.905V157.905Z" fill="#65809A"/>
<path d="M124.219 210.667C129.739 210.667 134.213 206.192 134.213 200.673C134.213 195.153 129.739 190.679 124.219 190.679C118.7 190.679 114.226 195.153 114.226 200.673C114.226 206.192 118.7 210.667 124.219 210.667Z" fill="#65809A"/>
<path d="M124.654 125.6C130.173 125.6 134.648 121.126 134.648 115.606C134.648 110.087 130.173 105.612 124.654 105.612C119.135 105.612 114.66 110.087 114.66 115.606C114.66 121.126 119.135 125.6 124.654 125.6Z" fill="#65809A"/>
<path d="M252.115 84.5529H231.57C230.07 84.5529 228.632 83.9571 227.571 82.8966C226.511 81.8361 225.915 80.3977 225.915 78.8978V63.7238C225.915 63.6574 225.934 63.5923 225.969 63.536C226.004 63.4797 226.055 63.4345 226.115 63.4056C226.174 63.3767 226.241 63.3652 226.307 63.3725C226.373 63.3798 226.436 63.4055 226.488 63.4468L252.334 83.9224C252.392 83.968 252.434 84.0303 252.454 84.1008C252.475 84.1713 252.473 84.2464 252.449 84.3157C252.425 84.385 252.38 84.4451 252.32 84.4876C252.26 84.5301 252.188 84.5529 252.115 84.5529Z" fill="#65809A"/>
<path d="M135.241 157.905C135.241 159.218 134.983 160.518 134.481 161.73C133.979 162.943 133.244 164.045 132.316 164.974C131.388 165.902 130.286 166.639 129.074 167.141C127.861 167.644 126.561 167.902 125.249 167.903C125.163 167.904 125.077 167.901 124.991 167.892C123.7 164.672 123.203 161.188 123.54 157.735C123.878 154.282 125.041 150.961 126.931 148.052C129.256 148.451 131.365 149.658 132.886 151.461C134.406 153.264 135.24 155.547 135.241 157.905V157.905Z" fill="#0D86FF"/>
<path d="M146.56 153.136C146.561 152.385 146.859 151.666 147.39 151.136C147.92 150.606 148.639 150.307 149.39 150.306H164.45C165.33 152.095 165.955 153.998 166.307 155.96H149.39C148.64 155.96 147.921 155.663 147.39 155.133C146.86 154.604 146.561 153.885 146.56 153.136V153.136Z" fill="#0D86FF"/>
<path d="M166.658 159.85C166.659 161.76 166.406 163.661 165.906 165.505H149.39C148.64 165.505 147.921 165.207 147.391 164.677C146.86 164.146 146.562 163.427 146.562 162.677C146.562 161.928 146.86 161.208 147.391 160.678C147.921 160.148 148.64 159.85 149.39 159.85H166.658Z" fill="#0D86FF"/>
<path d="M167.901 172.753C165.357 176.923 161.634 180.246 157.202 182.3C152.77 184.354 147.829 185.048 143.003 184.294C138.176 183.54 133.682 181.371 130.089 178.063C126.495 174.755 123.963 170.455 122.813 165.707C121.662 160.96 121.946 155.978 123.627 151.392C125.308 146.806 128.312 142.821 132.258 139.942C136.204 137.062 140.915 135.418 145.795 135.216C150.676 135.014 155.507 136.264 159.677 138.808C165.263 142.224 169.266 147.716 170.808 154.08C172.35 160.444 171.304 167.159 167.901 172.753ZM131.002 150.247C129.094 153.374 128.157 156.997 128.308 160.658C128.46 164.318 129.693 167.851 131.853 170.811C134.012 173.77 137.001 176.023 140.441 177.284C143.88 178.545 147.617 178.757 151.177 177.895C154.738 177.032 157.962 175.133 160.444 172.438C162.925 169.742 164.551 166.372 165.117 162.752C165.683 159.133 165.162 155.427 163.621 152.103C162.081 148.779 159.589 145.987 156.461 144.079C152.266 141.526 147.229 140.742 142.456 141.898C137.684 143.055 133.564 146.057 131.002 150.247V150.247Z" fill="#82879B"/>
<path d="M260.338 156.431C267.317 156.431 272.975 150.773 272.975 143.793C272.975 136.814 267.317 131.156 260.338 131.156C253.358 131.156 247.7 136.814 247.7 143.793C247.7 150.773 253.358 156.431 260.338 156.431Z" fill="#FDE7E6"/>
<path d="M259.521 214.64C259.277 213.88 259.197 213.078 259.285 212.285C259.373 211.493 259.627 210.728 260.031 210.04C260.436 209.353 260.981 208.758 261.631 208.296C262.281 207.834 263.021 207.515 263.803 207.358C264.051 207.31 264.302 207.279 264.554 207.266L277.866 185.901L265.706 174.341C265.241 173.899 264.869 173.37 264.61 172.784C264.351 172.197 264.211 171.565 264.198 170.924C264.184 170.283 264.298 169.646 264.532 169.05C264.767 168.453 265.117 167.909 265.563 167.448C266.009 166.987 266.541 166.62 267.13 166.366C267.719 166.113 268.352 165.978 268.993 165.971C269.634 165.963 270.27 166.083 270.865 166.323C271.459 166.562 272.001 166.918 272.457 167.368L289.246 183.922L289.28 183.963C289.799 184.754 290.05 185.69 289.995 186.634C289.94 187.578 289.582 188.479 288.974 189.204L270.322 211.263C270.378 211.44 270.424 211.62 270.461 211.801C270.617 212.583 270.606 213.39 270.428 214.167C270.251 214.945 269.911 215.676 269.432 216.313C268.952 216.951 268.343 217.479 267.645 217.865C266.947 218.25 266.175 218.484 265.38 218.55C265.219 218.564 265.059 218.571 264.9 218.571C263.704 218.566 262.539 218.183 261.573 217.477C260.607 216.771 259.889 215.778 259.521 214.64V214.64Z" fill="#FDE7E6"/>
<path d="M239.524 319.675L233.216 319.674L230.215 295.343L239.525 295.344L239.524 319.675Z" fill="#FDE7E6"/>
<path d="M241.133 325.789L220.793 325.788V325.531C220.793 324.492 220.998 323.462 221.396 322.502C221.793 321.541 222.377 320.668 223.112 319.933C223.847 319.198 224.72 318.615 225.68 318.217C226.641 317.819 227.67 317.614 228.71 317.615H228.71L241.133 317.615L241.133 325.789Z" fill="#677285"/>
<path d="M302.222 310.953L296.802 314.18L281.775 294.81L289.775 290.047L302.222 310.953Z" fill="#FDE7E6"/>
<path d="M306.734 315.384L289.257 325.789L289.125 325.568C288.593 324.675 288.243 323.686 288.093 322.657C287.944 321.628 287.998 320.58 288.254 319.572C288.509 318.564 288.961 317.617 289.582 316.783C290.204 315.95 290.984 315.247 291.877 314.716L291.878 314.715L302.552 308.36L306.734 315.384Z" fill="#677285"/>
<path d="M229.419 308.959C225.194 259.201 222.68 212.976 238.127 194.119L238.247 193.973L264.244 204.372L264.287 204.465C264.374 204.656 273.02 223.674 271.004 236.466L277.416 265.963L298.324 300.972C298.493 301.254 298.599 301.569 298.637 301.895C298.674 302.221 298.642 302.551 298.543 302.864C298.443 303.177 298.278 303.465 298.058 303.709C297.839 303.953 297.57 304.147 297.269 304.28L288.183 308.277C287.67 308.501 287.094 308.532 286.561 308.365C286.027 308.198 285.571 307.844 285.277 307.369L262.532 270.282L249.685 241.835C249.616 241.681 249.497 241.554 249.348 241.473C249.199 241.393 249.027 241.364 248.86 241.391C248.692 241.418 248.539 241.499 248.422 241.622C248.305 241.745 248.232 241.903 248.215 242.071L241.093 309.01C241.034 309.579 240.765 310.105 240.34 310.488C239.915 310.87 239.363 311.082 238.791 311.081H231.727C231.148 311.077 230.59 310.858 230.163 310.466C229.737 310.074 229.471 309.537 229.419 308.959V308.959Z" fill="#808599"/>
<path d="M238.214 194.514L238.091 194.454L238.071 194.318C237.1 187.521 238.25 179.969 241.488 171.872C243.084 167.909 246.05 164.651 249.847 162.692C253.644 160.733 258.018 160.203 262.173 161.199V161.199C264.566 161.789 266.811 162.869 268.765 164.371C270.719 165.874 272.339 167.766 273.524 169.927C274.693 172.067 275.406 174.426 275.616 176.855C275.826 179.284 275.529 181.73 274.745 184.038C270.662 195.975 265.367 207.144 265.314 207.256L265.203 207.489L238.214 194.514Z" fill="#0D86FF"/>
<path d="M209.851 177.584C210.477 177.09 211.2 176.733 211.974 176.538C212.747 176.343 213.553 176.313 214.338 176.451C215.124 176.589 215.871 176.892 216.532 177.339C217.192 177.786 217.751 178.367 218.171 179.045C218.303 179.26 218.42 179.484 218.521 179.716L243.195 184.703L249.764 169.265C250.015 168.675 250.381 168.141 250.839 167.693C251.298 167.245 251.841 166.893 252.436 166.656C253.032 166.419 253.669 166.302 254.31 166.313C254.951 166.323 255.583 166.461 256.171 166.717C256.758 166.974 257.289 167.344 257.733 167.807C258.177 168.269 258.524 168.815 258.756 169.413C258.987 170.011 259.098 170.649 259.081 171.289C259.065 171.93 258.922 172.561 258.66 173.147L249.033 194.67L249.006 194.716C248.448 195.479 247.659 196.042 246.755 196.321C245.852 196.6 244.882 196.58 243.991 196.264L216.796 186.519C216.65 186.633 216.498 186.739 216.341 186.837C215.663 187.257 214.904 187.529 214.113 187.635C213.323 187.742 212.519 187.68 211.754 187.453C210.989 187.227 210.281 186.842 209.675 186.323C209.07 185.804 208.581 185.163 208.24 184.441C208.171 184.296 208.108 184.149 208.052 184C207.638 182.877 207.589 181.652 207.912 180.5C208.235 179.348 208.914 178.327 209.851 177.584V177.584Z" fill="#FDE7E6"/>
<path d="M305.992 157.327C304.775 155.17 303.001 153.195 300.657 152.397C297.629 151.368 294.35 152.464 291.237 153.196C288.838 153.76 286.333 154.105 283.915 153.629C281.498 153.153 279.166 151.746 278.066 149.542C276.447 146.298 277.811 142.431 277.712 138.807C277.662 136.835 277.164 134.9 276.257 133.148C275.349 131.396 274.056 129.872 272.475 128.693C270.893 127.513 269.064 126.708 267.126 126.338C265.188 125.968 263.191 126.042 261.286 126.556C258.306 125.696 255.607 125.616 253.763 127.908C251.443 127.908 249.218 128.829 247.578 130.47C245.937 132.11 245.016 134.335 245.016 136.655H253.38C252.983 138.787 253.436 140.991 254.642 142.794C256.119 144.963 258.686 146.532 259.18 149.109C259.659 151.606 257.962 153.976 256.181 155.791C254.401 157.606 252.335 159.405 251.779 161.886C251.438 163.77 251.825 165.713 252.861 167.322C253.896 168.912 255.179 170.326 256.662 171.508C263.343 177.232 271.284 181.295 279.835 183.363C285.857 184.813 292.444 185.189 298.035 182.522C300.271 181.455 302.264 179.939 303.89 178.07C305.516 176.2 306.74 174.016 307.486 171.653C308.233 169.29 308.485 166.799 308.228 164.335C307.971 161.87 307.21 159.485 305.992 157.327V157.327Z" fill="#62616E"/>
<path fill-rule="evenodd" clip-rule="evenodd" d="M285.351 21.4993C282.72 21.6232 223.469 37.9028 223.469 37.9028L237.563 42.3553L244.099 55.5362C244.099 55.5362 287.983 21.3753 285.351 21.4993Z" fill="#65809A"/>
<mask id="mask0_397_82507" style="mask-type:luminance" maskUnits="userSpaceOnUse" x="223" y="21" width="63" height="35">
<path fill-rule="evenodd" clip-rule="evenodd" d="M285.351 21.4993C282.72 21.6232 223.469 37.9028 223.469 37.9028L237.563 42.3553L244.099 55.5362C244.099 55.5362 287.983 21.3753 285.351 21.4993Z" fill="white"/>
</mask>
<g mask="url(#mask0_397_82507)">
<path fill-rule="evenodd" clip-rule="evenodd" d="M237.413 42.6179L285.316 21.4819L243.95 55.9458L237.413 42.6179Z" fill="#4C5A68"/>
</g>
<path fill-rule="evenodd" clip-rule="evenodd" d="M266.504 52.9744L249.794 46.9093L284.902 21.6949L266.504 52.9744Z" fill="#65809A"/>
<path fill-rule="evenodd" clip-rule="evenodd" d="M228.975 66.1024C230.732 64.0502 232.52 61.9177 234.341 59.7051L235.831 61.0037C234.002 63.2272 232.204 65.3706 230.438 67.434L228.975 66.1024ZM217.885 78.1715C219.729 76.2337 221.615 74.1914 223.542 72.0448L224.972 73.4164C223.031 75.5785 221.131 77.6364 219.272 79.59L217.885 78.1715ZM212.07 83.7392C209.985 85.7739 207.96 87.6611 205.994 89.4006L207.248 90.9515C209.241 89.1877 211.293 87.2762 213.403 85.2171L212.07 83.7392ZM192.873 98.9684C195.022 97.6497 197.271 96.0886 199.619 94.2851L200.761 95.9355C198.355 97.7834 196.045 99.3871 193.829 100.747L192.873 98.9684ZM185.667 102.213C182.897 103.294 180.344 103.866 178.009 103.936L177.962 106.035C180.538 105.958 183.315 105.335 186.292 104.174L185.667 102.213ZM165.177 96.5981C166.755 98.9832 168.556 100.756 170.579 101.93L169.522 103.775C167.233 102.448 165.222 100.468 163.488 97.8458L165.177 96.5981ZM161.281 89.4443C161.212 89.2487 161.144 89.051 161.076 88.8514C160.198 86.2509 159.706 83.877 159.584 81.729L157.584 81.9587C157.717 84.3053 158.247 86.8604 159.182 89.6281C159.252 89.8364 159.323 90.0425 159.395 90.2466L161.281 89.4443ZM166.65 69.3145C164.043 70.5411 162.092 72.2357 160.855 74.3849L159.146 73.3902C160.622 70.8257 162.915 68.8334 165.901 67.4285L166.65 69.3145ZM174.288 67.6958C176.737 67.3992 179.408 67.343 182.232 67.5234L182.462 65.4151C179.523 65.2274 176.732 65.2861 174.157 65.598L174.288 67.6958ZM197.878 70.8806C195.318 70.0622 192.724 69.3898 190.155 68.879L190.636 66.7754C193.275 67.3002 195.938 67.9906 198.565 68.8305L197.878 70.8806ZM205.592 73.9106C208.074 75.0201 210.428 76.2509 212.601 77.579L213.698 75.7375C211.455 74.3666 209.03 73.0986 206.476 71.9569L205.592 73.9106ZM224.457 88.089C223.15 86.0947 221.409 84.148 219.282 82.2874L220.633 80.6562C222.885 82.6255 224.741 84.701 226.149 86.8506L224.457 88.089ZM227.632 95.371C227.75 96.6161 227.691 97.8626 227.45 99.1091C227.195 100.428 226.853 101.73 226.424 103.015L228.287 103.602C228.746 102.225 229.113 100.829 229.386 99.4155C229.667 97.9634 229.736 96.5093 229.598 95.0613L227.632 95.371ZM218.045 116.613C220.004 114.516 221.678 112.369 223.069 110.171L224.719 111.245C223.252 113.563 221.493 115.82 219.442 118.015L218.045 116.613ZM212.018 121.849C209.986 123.489 207.766 125.095 205.355 126.665L206.36 128.412C208.831 126.802 211.111 125.154 213.201 123.466L212.018 121.849ZM191.052 134.139C193.629 132.924 196.072 131.684 198.383 130.419L199.251 132.255C196.902 133.54 194.421 134.799 191.807 136.032L191.052 134.139ZM183.405 137.021C180.956 138.034 178.407 139.028 175.758 140.003L176.345 141.971C179.019 140.986 181.593 139.983 184.068 138.959L183.405 137.021ZM163.116 143.876C164.751 143.366 166.356 142.851 167.93 142.331L168.452 144.321C166.866 144.846 165.25 145.364 163.604 145.877L163.116 143.876Z" fill="#C7D0D9"/>
<path d="M212.467 183.676C212.185 184.445 211.609 185.07 210.866 185.415C210.123 185.759 209.274 185.795 208.505 185.513L168.897 171.001C168.517 170.861 168.167 170.648 167.869 170.374C167.571 170.099 167.33 169.769 167.159 169.401C166.989 169.033 166.893 168.635 166.876 168.23C166.859 167.825 166.923 167.421 167.062 167.04C167.202 166.659 167.415 166.31 167.69 166.011C167.964 165.713 168.295 165.472 168.663 165.301C169.031 165.13 169.429 165.034 169.834 165.017C170.239 165 170.643 165.063 171.024 165.203L210.632 179.715C211.4 179.997 212.026 180.572 212.37 181.315C212.714 182.058 212.749 182.907 212.467 183.676V183.676Z" fill="#82879B"/>
</g>
<defs>
<clipPath id="clip0_397_82507">
<rect width="320" height="320" fill="white"/>
</clipPath>
</defs>
</svg>
