<svg width="32" height="32" viewBox="0 0 32 32" fill="none" xmlns="http://www.w3.org/2000/svg">
<path d="M26.7696 8.50908L16.3203 2.56104V19.613L26.7696 25.561V8.50908Z" fill="url(#paint0_linear_354_67094)"/>
<path d="M17.3193 2.24023L16.3203 2.56124L26.7696 8.50928L27.6614 8.02752L17.3193 2.24023Z" fill="url(#paint1_linear_354_67094)"/>
<path d="M27.6166 8.00342L26.7695 8.5091V25.7216L27.6166 24.8944V8.00342Z" fill="url(#paint2_linear_354_67094)"/>
<g filter="url(#filter0_b_354_67094)">
<path d="M18.2692 9.28649L4.48047 1.4375V23.9391L18.2692 31.788V9.28649Z" fill="url(#paint3_linear_354_67094)"/>
<path d="M7.46307 0L4.48047 1.43753L18.2692 9.28652L21.1104 7.63685L7.46307 0Z" fill="url(#paint4_linear_354_67094)"/>
<path d="M21.1101 7.63623L18.2686 9.2862V31.9997L21.1101 29.9255V7.63623Z" fill="url(#paint5_linear_354_67094)"/>
</g>
<path d="M16.3256 10.6353L4.68359 4.0083V23.0066L16.3256 29.6336V10.6353Z" fill="url(#paint6_linear_354_67094)"/>
<path d="M5.79659 3.65039L4.68359 4.00803L16.3256 10.635L17.3192 10.0983L5.79659 3.65039Z" fill="url(#paint7_linear_354_67094)"/>
<path d="M17.269 10.0713L16.3252 10.6347V29.8119L17.269 28.8903V10.0713Z" fill="#00B67F"/>
<path d="M8.23228 2.23047L7.52246 5.67814L13.3024 8.92301L13.9108 5.37393L8.23228 2.23047Z" fill="url(#paint8_linear_354_67094)"/>
<path d="M10.9703 0.811035L8.23242 2.23066L13.9109 5.37413L16.6488 3.7517L10.9703 0.811035Z" fill="url(#paint9_linear_354_67094)"/>
<path d="M13.3027 8.92297L13.9111 5.3739L16.649 3.75146L17.0546 5.3739L16.8518 5.2725L14.2154 6.89493V8.31456L13.3027 8.92297Z" fill="url(#paint10_linear_354_67094)"/>
<path d="M14.5189 3.54898C14.3161 0.405585 12.2447 0.0652692 11.1631 0.234273C13.759 0.639822 13.7076 2.83924 13.809 4.05606L14.5189 3.54898Z" fill="#E0E4E8"/>
<path d="M10.3613 2.18786V2.18926L13.809 4.05588C14.1132 1.72363 12.7611 0.634439 12.0852 0.364025C10.3623 -0.272779 10.3617 1.3475 10.3613 2.18786Z" fill="url(#paint11_linear_354_67094)"/>
<g filter="url(#filter1_b_354_67094)">
<path d="M10.6608 17.398L0.800781 11.4819V13.6183L10.6608 19.5343V17.398Z" fill="url(#paint12_linear_354_67094)"/>
<path d="M1.50507 11.2002L0.800781 11.4819L10.6608 17.3979L11.2008 17.1162L1.50507 11.2002Z" fill="url(#paint13_linear_354_67094)"/>
<path d="M10.6611 19.5345V17.3982L11.1893 17.0107V19.1236L10.6611 19.5345Z" fill="url(#paint14_linear_354_67094)"/>
</g>
<g filter="url(#filter2_b_354_67094)">
<path d="M11.4606 22.1978L1.60059 16.2817V18.4181L11.4606 24.3341V22.1978Z" fill="url(#paint15_linear_354_67094)"/>
<path d="M2.30487 16L1.60059 16.2817L11.4606 22.1977L12.0006 21.916L2.30487 16Z" fill="url(#paint16_linear_354_67094)"/>
<path d="M11.4609 24.3343V22.198L11.9892 21.8105V23.9234L11.4609 24.3343Z" fill="url(#paint17_linear_354_67094)"/>
</g>
<g filter="url(#filter3_b_354_67094)">
<path d="M13.7295 12.3138L9.60059 9.81982V15.032L13.7295 17.526V12.3138Z" fill="url(#paint18_linear_354_67094)"/>
<path d="M10.149 9.6001L9.60059 9.81947L13.7293 12.3135L14.1498 12.0941L10.149 9.6001Z" fill="url(#paint19_linear_354_67094)"/>
<path d="M13.7295 17.5416L13.7295 12.3134L14.1409 12.0117L14.1408 17.2216L13.7295 17.5416Z" fill="url(#paint20_linear_354_67094)"/>
</g>
<defs>
<filter id="filter0_b_354_67094" x="1.48047" y="-3" width="22.6299" height="37.9995" filterUnits="userSpaceOnUse" color-interpolation-filters="sRGB">
<feFlood flood-opacity="0" result="BackgroundImageFix"/>
<feGaussianBlur in="BackgroundImageFix" stdDeviation="1.5"/>
<feComposite in2="SourceAlpha" operator="in" result="effect1_backgroundBlur_354_67094"/>
<feBlend mode="normal" in="SourceGraphic" in2="effect1_backgroundBlur_354_67094" result="shape"/>
</filter>
<filter id="filter1_b_354_67094" x="-2.19922" y="8.2002" width="16.4004" height="14.3345" filterUnits="userSpaceOnUse" color-interpolation-filters="sRGB">
<feFlood flood-opacity="0" result="BackgroundImageFix"/>
<feGaussianBlur in="BackgroundImageFix" stdDeviation="1.5"/>
<feComposite in2="SourceAlpha" operator="in" result="effect1_backgroundBlur_354_67094"/>
<feBlend mode="normal" in="SourceGraphic" in2="effect1_backgroundBlur_354_67094" result="shape"/>
</filter>
<filter id="filter2_b_354_67094" x="-1.39941" y="13" width="16.4004" height="14.3345" filterUnits="userSpaceOnUse" color-interpolation-filters="sRGB">
<feFlood flood-opacity="0" result="BackgroundImageFix"/>
<feGaussianBlur in="BackgroundImageFix" stdDeviation="1.5"/>
<feComposite in2="SourceAlpha" operator="in" result="effect1_backgroundBlur_354_67094"/>
<feBlend mode="normal" in="SourceGraphic" in2="effect1_backgroundBlur_354_67094" result="shape"/>
</filter>
<filter id="filter3_b_354_67094" x="6.60059" y="6.6001" width="10.5488" height="13.9414" filterUnits="userSpaceOnUse" color-interpolation-filters="sRGB">
<feFlood flood-opacity="0" result="BackgroundImageFix"/>
<feGaussianBlur in="BackgroundImageFix" stdDeviation="1.5"/>
<feComposite in2="SourceAlpha" operator="in" result="effect1_backgroundBlur_354_67094"/>
<feBlend mode="normal" in="SourceGraphic" in2="effect1_backgroundBlur_354_67094" result="shape"/>
</filter>
<linearGradient id="paint0_linear_354_67094" x1="25.7476" y1="22.6355" x2="13.8278" y2="23.9378" gradientUnits="userSpaceOnUse">
<stop stop-color="#27E5AC"/>
<stop offset="1" stop-color="#12B685"/>
</linearGradient>
<linearGradient id="paint1_linear_354_67094" x1="16.8206" y1="8.56739" x2="18.1044" y2="2.72088" gradientUnits="userSpaceOnUse">
<stop stop-color="#C4FFED"/>
<stop offset="1" stop-color="#1BD9A0"/>
</linearGradient>
<linearGradient id="paint2_linear_354_67094" x1="27.6521" y1="25.0049" x2="26.8971" y2="25.0109" gradientUnits="userSpaceOnUse">
<stop stop-color="#1BD9A0"/>
<stop offset="1" stop-color="#0A8560"/>
</linearGradient>
<linearGradient id="paint3_linear_354_67094" x1="16.9206" y1="27.9275" x2="-5.05252" y2="34.2301" gradientUnits="userSpaceOnUse">
<stop stop-color="#F8FAFB"/>
<stop offset="1" stop-color="#E0E4E8"/>
</linearGradient>
<linearGradient id="paint4_linear_354_67094" x1="12.8008" y1="6.4" x2="17.6221" y2="5.76126" gradientUnits="userSpaceOnUse">
<stop stop-color="#F8FAFB"/>
<stop offset="1" stop-color="#E0E4E8"/>
</linearGradient>
<linearGradient id="paint5_linear_354_67094" x1="21.2293" y1="31.0141" x2="18.6973" y2="31.0631" gradientUnits="userSpaceOnUse">
<stop stop-color="#F8FAFB"/>
<stop offset="1" stop-color="#E0E4E8"/>
</linearGradient>
<linearGradient id="paint6_linear_354_67094" x1="15.1869" y1="26.3741" x2="1.90662" y2="27.8251" gradientUnits="userSpaceOnUse">
<stop stop-color="#27E5AC"/>
<stop offset="1" stop-color="#12B685"/>
</linearGradient>
<linearGradient id="paint7_linear_354_67094" x1="5.241" y1="10.6998" x2="6.67127" y2="4.18589" gradientUnits="userSpaceOnUse">
<stop stop-color="#C4FFED"/>
<stop offset="1" stop-color="#1BD9A0"/>
</linearGradient>
<linearGradient id="paint8_linear_354_67094" x1="10.7166" y1="2.23047" x2="10.7166" y2="8.92301" gradientUnits="userSpaceOnUse">
<stop stop-color="#1DDEA4"/>
<stop offset="1" stop-color="#039D6F"/>
</linearGradient>
<linearGradient id="paint9_linear_354_67094" x1="12.4406" y1="0.811035" x2="12.4406" y2="5.37413" gradientUnits="userSpaceOnUse">
<stop stop-color="#1DDEA4"/>
<stop offset="1" stop-color="#039D6F"/>
</linearGradient>
<linearGradient id="paint10_linear_354_67094" x1="15.1787" y1="3.75146" x2="15.1787" y2="8.92297" gradientUnits="userSpaceOnUse">
<stop stop-color="#00AC78"/>
<stop offset="1" stop-color="#078A63"/>
</linearGradient>
<linearGradient id="paint11_linear_354_67094" x1="13.5114" y1="3.56787" x2="8.98416" y2="6.16905" gradientUnits="userSpaceOnUse">
<stop stop-color="#F8FAFB"/>
<stop offset="1" stop-color="#E0E4E8"/>
</linearGradient>
<linearGradient id="paint12_linear_354_67094" x1="9.69645" y1="18.5101" x2="-0.947496" y2="26.7386" gradientUnits="userSpaceOnUse">
<stop stop-color="#F8FAFB"/>
<stop offset="1" stop-color="#E0E4E8"/>
</linearGradient>
<linearGradient id="paint13_linear_354_67094" x1="6.00412" y1="15.4715" x2="9.02565" y2="15.0964" gradientUnits="userSpaceOnUse">
<stop stop-color="#F8FAFB"/>
<stop offset="1" stop-color="#E0E4E8"/>
</linearGradient>
<linearGradient id="paint14_linear_354_67094" x1="11.2115" y1="19.4324" x2="10.7412" y2="19.4488" gradientUnits="userSpaceOnUse">
<stop stop-color="#F8FAFB"/>
<stop offset="1" stop-color="#E0E4E8"/>
</linearGradient>
<linearGradient id="paint15_linear_354_67094" x1="10.4963" y1="23.3099" x2="-0.147692" y2="31.5384" gradientUnits="userSpaceOnUse">
<stop stop-color="#F8FAFB"/>
<stop offset="1" stop-color="#E0E4E8"/>
</linearGradient>
<linearGradient id="paint16_linear_354_67094" x1="6.80393" y1="20.2713" x2="9.82546" y2="19.8962" gradientUnits="userSpaceOnUse">
<stop stop-color="#F8FAFB"/>
<stop offset="1" stop-color="#E0E4E8"/>
</linearGradient>
<linearGradient id="paint17_linear_354_67094" x1="12.0113" y1="24.2322" x2="11.541" y2="24.2486" gradientUnits="userSpaceOnUse">
<stop stop-color="#F8FAFB"/>
<stop offset="1" stop-color="#E0E4E8"/>
</linearGradient>
<linearGradient id="paint18_linear_354_67094" x1="13.3257" y1="16.5458" x2="6.93586" y2="18.7073" gradientUnits="userSpaceOnUse">
<stop stop-color="#F8FAFB"/>
<stop offset="1" stop-color="#E0E4E8"/>
</linearGradient>
<linearGradient id="paint19_linear_354_67094" x1="11.8767" y1="11.4701" x2="13.1984" y2="11.3062" gradientUnits="userSpaceOnUse">
<stop stop-color="#F8FAFB"/>
<stop offset="1" stop-color="#E0E4E8"/>
</linearGradient>
<linearGradient id="paint20_linear_354_67094" x1="14.1581" y1="17.3179" x2="13.7915" y2="17.3225" gradientUnits="userSpaceOnUse">
<stop stop-color="#F8FAFB"/>
<stop offset="1" stop-color="#E0E4E8"/>
</linearGradient>
</defs>
</svg>
